<?xml version="1.0" encoding="utf-8" standalone="no"?>
<!DOCTYPE svg PUBLIC "-//W3C//DTD SVG 1.1//EN"
  "http://www.w3.org/Graphics/SVG/1.1/DTD/svg11.dtd">
<svg xmlns:xlink="http://www.w3.org/1999/xlink" width="928.930625pt" height="352.746406pt" viewBox="0 0 928.930625 352.746406" xmlns="http://www.w3.org/2000/svg" version="1.1">
 <metadata>
  <rdf:RDF xmlns:dc="http://purl.org/dc/elements/1.1/" xmlns:cc="http://creativecommons.org/ns#" xmlns:rdf="http://www.w3.org/1999/02/22-rdf-syntax-ns#">
   <cc:Work>
    <dc:type rdf:resource="http://purl.org/dc/dcmitype/StillImage"/>
    <dc:date>2026-05-30T15:59:56.283772</dc:date>
    <dc:format>image/svg+xml</dc:format>
    <dc:creator>
     <cc:Agent>
      <dc:title>Matplotlib v3.10.8, https://matplotlib.org/</dc:title>
     </cc:Agent>
    </dc:creator>
   </cc:Work>
  </rdf:RDF>
 </metadata>
 <defs>
  <style type="text/css">*{stroke-linejoin: round; stroke-linecap: butt}</style>
 </defs>
 <g id="figure_1">
  <g id="patch_1">
   <path d="M 0 352.746406 
L 928.930625 352.746406 
L 928.930625 0 
L 0 0 
z
" style="fill: #ffffff"/>
  </g>
  <g id="axes_1">
   <g id="patch_2">
    <path d="M 39.330625 316.157969 
L 921.730625 316.157969 
L 921.730625 23.077969 
L 39.330625 23.077969 
z
" style="fill: #ffffff"/>
   </g>
   <g id="matplotlib.axis_1">
    <g id="xtick_1">
     <g id="line2d_1">
      <defs>
       <path id="m4958e09314" d="M 0 0 
L 0 3.5 
" style="stroke: #000000; stroke-width: 0.8"/>
      </defs>
      <g>
       <use xlink:href="#m4958e09314" x="78.688207" y="316.157969" style="stroke: #000000; stroke-width: 0.8"/>
      </g>
     </g>
     <g id="text_1">
      <!-- 1985 -->
      <g transform="translate(67.235707 329.996562) scale(0.09 -0.09)">
       <defs>
        <path id="DejaVuSans-31" d="M 794 531 
L 1825 531 
L 1825 4091 
L 703 3866 
L 703 4441 
L 1819 4666 
L 2450 4666 
L 2450 531 
L 3481 531 
L 3481 0 
L 794 0 
L 794 531 
z
" transform="scale(0.015625)"/>
        <path id="DejaVuSans-39" d="M 703 97 
L 703 672 
Q 941 559 1184 500 
Q 1428 441 1663 441 
Q 2288 441 2617 861 
Q 2947 1281 2994 2138 
Q 2813 1869 2534 1725 
Q 2256 1581 1919 1581 
Q 1219 1581 811 2004 
Q 403 2428 403 3163 
Q 403 3881 828 4315 
Q 1253 4750 1959 4750 
Q 2769 4750 3195 4129 
Q 3622 3509 3622 2328 
Q 3622 1225 3098 567 
Q 2575 -91 1691 -91 
Q 1453 -91 1209 -44 
Q 966 3 703 97 
z
M 1959 2075 
Q 2384 2075 2632 2365 
Q 2881 2656 2881 3163 
Q 2881 3666 2632 3958 
Q 2384 4250 1959 4250 
Q 1534 4250 1286 3958 
Q 1038 3666 1038 3163 
Q 1038 2656 1286 2365 
Q 1534 2075 1959 2075 
z
" transform="scale(0.015625)"/>
        <path id="DejaVuSans-38" d="M 2034 2216 
Q 1584 2216 1326 1975 
Q 1069 1734 1069 1313 
Q 1069 891 1326 650 
Q 1584 409 2034 409 
Q 2484 409 2743 651 
Q 3003 894 3003 1313 
Q 3003 1734 2745 1975 
Q 2488 2216 2034 2216 
z
M 1403 2484 
Q 997 2584 770 2862 
Q 544 3141 544 3541 
Q 544 4100 942 4425 
Q 1341 4750 2034 4750 
Q 2731 4750 3128 4425 
Q 3525 4100 3525 3541 
Q 3525 3141 3298 2862 
Q 3072 2584 2669 2484 
Q 3125 2378 3379 2068 
Q 3634 1759 3634 1313 
Q 3634 634 3220 271 
Q 2806 -91 2034 -91 
Q 1263 -91 848 271 
Q 434 634 434 1313 
Q 434 1759 690 2068 
Q 947 2378 1403 2484 
z
M 1172 3481 
Q 1172 3119 1398 2916 
Q 1625 2713 2034 2713 
Q 2441 2713 2670 2916 
Q 2900 3119 2900 3481 
Q 2900 3844 2670 4047 
Q 2441 4250 2034 4250 
Q 1625 4250 1398 4047 
Q 1172 3844 1172 3481 
z
" transform="scale(0.015625)"/>
        <path id="DejaVuSans-35" d="M 691 4666 
L 3169 4666 
L 3169 4134 
L 1269 4134 
L 1269 2991 
Q 1406 3038 1543 3061 
Q 1681 3084 1819 3084 
Q 2600 3084 3056 2656 
Q 3513 2228 3513 1497 
Q 3513 744 3044 326 
Q 2575 -91 1722 -91 
Q 1428 -91 1123 -41 
Q 819 9 494 109 
L 494 744 
Q 775 591 1075 516 
Q 1375 441 1709 441 
Q 2250 441 2565 725 
Q 2881 1009 2881 1497 
Q 2881 1984 2565 2268 
Q 2250 2553 1709 2553 
Q 1456 2553 1204 2497 
Q 953 2441 691 2322 
L 691 4666 
z
" transform="scale(0.015625)"/>
       </defs>
       <use xlink:href="#DejaVuSans-31"/>
       <use xlink:href="#DejaVuSans-39" transform="translate(63.623047 0)"/>
       <use xlink:href="#DejaVuSans-38" transform="translate(127.246094 0)"/>
       <use xlink:href="#DejaVuSans-35" transform="translate(190.869141 0)"/>
      </g>
     </g>
    </g>
    <g id="xtick_2">
     <g id="line2d_2">
      <g>
       <use xlink:href="#m4958e09314" x="176.706409" y="316.157969" style="stroke: #000000; stroke-width: 0.8"/>
      </g>
     </g>
     <g id="text_2">
      <!-- 1990 -->
      <g transform="translate(165.253909 329.996562) scale(0.09 -0.09)">
       <defs>
        <path id="DejaVuSans-30" d="M 2034 4250 
Q 1547 4250 1301 3770 
Q 1056 3291 1056 2328 
Q 1056 1369 1301 889 
Q 1547 409 2034 409 
Q 2525 409 2770 889 
Q 3016 1369 3016 2328 
Q 3016 3291 2770 3770 
Q 2525 4250 2034 4250 
z
M 2034 4750 
Q 2819 4750 3233 4129 
Q 3647 3509 3647 2328 
Q 3647 1150 3233 529 
Q 2819 -91 2034 -91 
Q 1250 -91 836 529 
Q 422 1150 422 2328 
Q 422 3509 836 4129 
Q 1250 4750 2034 4750 
z
" transform="scale(0.015625)"/>
       </defs>
       <use xlink:href="#DejaVuSans-31"/>
       <use xlink:href="#DejaVuSans-39" transform="translate(63.623047 0)"/>
       <use xlink:href="#DejaVuSans-39" transform="translate(127.246094 0)"/>
       <use xlink:href="#DejaVuSans-30" transform="translate(190.869141 0)"/>
      </g>
     </g>
    </g>
    <g id="xtick_3">
     <g id="line2d_3">
      <g>
       <use xlink:href="#m4958e09314" x="274.72461" y="316.157969" style="stroke: #000000; stroke-width: 0.8"/>
      </g>
     </g>
     <g id="text_3">
      <!-- 1995 -->
      <g transform="translate(263.27211 329.996562) scale(0.09 -0.09)">
       <use xlink:href="#DejaVuSans-31"/>
       <use xlink:href="#DejaVuSans-39" transform="translate(63.623047 0)"/>
       <use xlink:href="#DejaVuSans-39" transform="translate(127.246094 0)"/>
       <use xlink:href="#DejaVuSans-35" transform="translate(190.869141 0)"/>
      </g>
     </g>
    </g>
    <g id="xtick_4">
     <g id="line2d_4">
      <g>
       <use xlink:href="#m4958e09314" x="372.742811" y="316.157969" style="stroke: #000000; stroke-width: 0.8"/>
      </g>
     </g>
     <g id="text_4">
      <!-- 2000 -->
      <g transform="translate(361.290311 329.996562) scale(0.09 -0.09)">
       <defs>
        <path id="DejaVuSans-32" d="M 1228 531 
L 3431 531 
L 3431 0 
L 469 0 
L 469 531 
Q 828 903 1448 1529 
Q 2069 2156 2228 2338 
Q 2531 2678 2651 2914 
Q 2772 3150 2772 3378 
Q 2772 3750 2511 3984 
Q 2250 4219 1831 4219 
Q 1534 4219 1204 4116 
Q 875 4013 500 3803 
L 500 4441 
Q 881 4594 1212 4672 
Q 1544 4750 1819 4750 
Q 2544 4750 2975 4387 
Q 3406 4025 3406 3419 
Q 3406 3131 3298 2873 
Q 3191 2616 2906 2266 
Q 2828 2175 2409 1742 
Q 1991 1309 1228 531 
z
" transform="scale(0.015625)"/>
       </defs>
       <use xlink:href="#DejaVuSans-32"/>
       <use xlink:href="#DejaVuSans-30" transform="translate(63.623047 0)"/>
       <use xlink:href="#DejaVuSans-30" transform="translate(127.246094 0)"/>
       <use xlink:href="#DejaVuSans-30" transform="translate(190.869141 0)"/>
      </g>
     </g>
    </g>
    <g id="xtick_5">
     <g id="line2d_5">
      <g>
       <use xlink:href="#m4958e09314" x="470.814692" y="316.157969" style="stroke: #000000; stroke-width: 0.8"/>
      </g>
     </g>
     <g id="text_5">
      <!-- 2005 -->
      <g transform="translate(459.362192 329.996562) scale(0.09 -0.09)">
       <use xlink:href="#DejaVuSans-32"/>
       <use xlink:href="#DejaVuSans-30" transform="translate(63.623047 0)"/>
       <use xlink:href="#DejaVuSans-30" transform="translate(127.246094 0)"/>
       <use xlink:href="#DejaVuSans-35" transform="translate(190.869141 0)"/>
      </g>
     </g>
    </g>
    <g id="xtick_6">
     <g id="line2d_6">
      <g>
       <use xlink:href="#m4958e09314" x="568.832893" y="316.157969" style="stroke: #000000; stroke-width: 0.8"/>
      </g>
     </g>
     <g id="text_6">
      <!-- 2010 -->
      <g transform="translate(557.380393 329.996562) scale(0.09 -0.09)">
       <use xlink:href="#DejaVuSans-32"/>
       <use xlink:href="#DejaVuSans-30" transform="translate(63.623047 0)"/>
       <use xlink:href="#DejaVuSans-31" transform="translate(127.246094 0)"/>
       <use xlink:href="#DejaVuSans-30" transform="translate(190.869141 0)"/>
      </g>
     </g>
    </g>
    <g id="xtick_7">
     <g id="line2d_7">
      <g>
       <use xlink:href="#m4958e09314" x="666.851094" y="316.157969" style="stroke: #000000; stroke-width: 0.8"/>
      </g>
     </g>
     <g id="text_7">
      <!-- 2015 -->
      <g transform="translate(655.398594 329.996562) scale(0.09 -0.09)">
       <use xlink:href="#DejaVuSans-32"/>
       <use xlink:href="#DejaVuSans-30" transform="translate(63.623047 0)"/>
       <use xlink:href="#DejaVuSans-31" transform="translate(127.246094 0)"/>
       <use xlink:href="#DejaVuSans-35" transform="translate(190.869141 0)"/>
      </g>
     </g>
    </g>
    <g id="xtick_8">
     <g id="line2d_8">
      <g>
       <use xlink:href="#m4958e09314" x="764.869295" y="316.157969" style="stroke: #000000; stroke-width: 0.8"/>
      </g>
     </g>
     <g id="text_8">
      <!-- 2020 -->
      <g transform="translate(753.416795 329.996562) scale(0.09 -0.09)">
       <use xlink:href="#DejaVuSans-32"/>
       <use xlink:href="#DejaVuSans-30" transform="translate(63.623047 0)"/>
       <use xlink:href="#DejaVuSans-32" transform="translate(127.246094 0)"/>
       <use xlink:href="#DejaVuSans-30" transform="translate(190.869141 0)"/>
      </g>
     </g>
    </g>
    <g id="xtick_9">
     <g id="line2d_9">
      <g>
       <use xlink:href="#m4958e09314" x="862.941176" y="316.157969" style="stroke: #000000; stroke-width: 0.8"/>
      </g>
     </g>
     <g id="text_9">
      <!-- 2025 -->
      <g transform="translate(851.488676 329.996562) scale(0.09 -0.09)">
       <use xlink:href="#DejaVuSans-32"/>
       <use xlink:href="#DejaVuSans-30" transform="translate(63.623047 0)"/>
       <use xlink:href="#DejaVuSans-32" transform="translate(127.246094 0)"/>
       <use xlink:href="#DejaVuSans-35" transform="translate(190.869141 0)"/>
      </g>
     </g>
    </g>
    <g id="text_10">
     <!-- Year -->
     <g transform="translate(469.943125 343.466719) scale(0.1 -0.1)">
      <defs>
       <path id="DejaVuSans-59" d="M -13 4666 
L 666 4666 
L 1959 2747 
L 3244 4666 
L 3922 4666 
L 2272 2222 
L 2272 0 
L 1638 0 
L 1638 2222 
L -13 4666 
z
" transform="scale(0.015625)"/>
       <path id="DejaVuSans-65" d="M 3597 1894 
L 3597 1613 
L 953 1613 
Q 991 1019 1311 708 
Q 1631 397 2203 397 
Q 2534 397 2845 478 
Q 3156 559 3463 722 
L 3463 178 
Q 3153 47 2828 -22 
Q 2503 -91 2169 -91 
Q 1331 -91 842 396 
Q 353 884 353 1716 
Q 353 2575 817 3079 
Q 1281 3584 2069 3584 
Q 2775 3584 3186 3129 
Q 3597 2675 3597 1894 
z
M 3022 2063 
Q 3016 2534 2758 2815 
Q 2500 3097 2075 3097 
Q 1594 3097 1305 2825 
Q 1016 2553 972 2059 
L 3022 2063 
z
" transform="scale(0.015625)"/>
       <path id="DejaVuSans-61" d="M 2194 1759 
Q 1497 1759 1228 1600 
Q 959 1441 959 1056 
Q 959 750 1161 570 
Q 1363 391 1709 391 
Q 2188 391 2477 730 
Q 2766 1069 2766 1631 
L 2766 1759 
L 2194 1759 
z
M 3341 1997 
L 3341 0 
L 2766 0 
L 2766 531 
Q 2569 213 2275 61 
Q 1981 -91 1556 -91 
Q 1019 -91 701 211 
Q 384 513 384 1019 
Q 384 1609 779 1909 
Q 1175 2209 1959 2209 
L 2766 2209 
L 2766 2266 
Q 2766 2663 2505 2880 
Q 2244 3097 1772 3097 
Q 1472 3097 1187 3025 
Q 903 2953 641 2809 
L 641 3341 
Q 956 3463 1253 3523 
Q 1550 3584 1831 3584 
Q 2591 3584 2966 3190 
Q 3341 2797 3341 1997 
z
" transform="scale(0.015625)"/>
       <path id="DejaVuSans-72" d="M 2631 2963 
Q 2534 3019 2420 3045 
Q 2306 3072 2169 3072 
Q 1681 3072 1420 2755 
Q 1159 2438 1159 1844 
L 1159 0 
L 581 0 
L 581 3500 
L 1159 3500 
L 1159 2956 
Q 1341 3275 1631 3429 
Q 1922 3584 2338 3584 
Q 2397 3584 2469 3576 
Q 2541 3569 2628 3553 
L 2631 2963 
z
" transform="scale(0.015625)"/>
      </defs>
      <use xlink:href="#DejaVuSans-59"/>
      <use xlink:href="#DejaVuSans-65" transform="translate(47.833984 0)"/>
      <use xlink:href="#DejaVuSans-61" transform="translate(109.357422 0)"/>
      <use xlink:href="#DejaVuSans-72" transform="translate(170.636719 0)"/>
     </g>
    </g>
   </g>
   <g id="matplotlib.axis_2">
    <g id="ytick_1">
     <g id="line2d_10">
      <defs>
       <path id="m2cf05cb216" d="M 0 0 
L -3.5 0 
" style="stroke: #000000; stroke-width: 0.8"/>
      </defs>
      <g>
       <use xlink:href="#m2cf05cb216" x="39.330625" y="283.383347" style="stroke: #000000; stroke-width: 0.8"/>
      </g>
     </g>
     <g id="text_11">
      <!-- 25 -->
      <g transform="translate(20.878125 286.802644) scale(0.09 -0.09)">
       <use xlink:href="#DejaVuSans-32"/>
       <use xlink:href="#DejaVuSans-35" transform="translate(63.623047 0)"/>
      </g>
     </g>
    </g>
    <g id="ytick_2">
     <g id="line2d_11">
      <g>
       <use xlink:href="#m2cf05cb216" x="39.330625" y="238.066493" style="stroke: #000000; stroke-width: 0.8"/>
      </g>
     </g>
     <g id="text_12">
      <!-- 26 -->
      <g transform="translate(20.878125 241.48579) scale(0.09 -0.09)">
       <defs>
        <path id="DejaVuSans-36" d="M 2113 2584 
Q 1688 2584 1439 2293 
Q 1191 2003 1191 1497 
Q 1191 994 1439 701 
Q 1688 409 2113 409 
Q 2538 409 2786 701 
Q 3034 994 3034 1497 
Q 3034 2003 2786 2293 
Q 2538 2584 2113 2584 
z
M 3366 4563 
L 3366 3988 
Q 3128 4100 2886 4159 
Q 2644 4219 2406 4219 
Q 1781 4219 1451 3797 
Q 1122 3375 1075 2522 
Q 1259 2794 1537 2939 
Q 1816 3084 2150 3084 
Q 2853 3084 3261 2657 
Q 3669 2231 3669 1497 
Q 3669 778 3244 343 
Q 2819 -91 2113 -91 
Q 1303 -91 875 529 
Q 447 1150 447 2328 
Q 447 3434 972 4092 
Q 1497 4750 2381 4750 
Q 2619 4750 2861 4703 
Q 3103 4656 3366 4563 
z
" transform="scale(0.015625)"/>
       </defs>
       <use xlink:href="#DejaVuSans-32"/>
       <use xlink:href="#DejaVuSans-36" transform="translate(63.623047 0)"/>
      </g>
     </g>
    </g>
    <g id="ytick_3">
     <g id="line2d_12">
      <g>
       <use xlink:href="#m2cf05cb216" x="39.330625" y="192.74964" style="stroke: #000000; stroke-width: 0.8"/>
      </g>
     </g>
     <g id="text_13">
      <!-- 27 -->
      <g transform="translate(20.878125 196.168936) scale(0.09 -0.09)">
       <defs>
        <path id="DejaVuSans-37" d="M 525 4666 
L 3525 4666 
L 3525 4397 
L 1831 0 
L 1172 0 
L 2766 4134 
L 525 4134 
L 525 4666 
z
" transform="scale(0.015625)"/>
       </defs>
       <use xlink:href="#DejaVuSans-32"/>
       <use xlink:href="#DejaVuSans-37" transform="translate(63.623047 0)"/>
      </g>
     </g>
    </g>
    <g id="ytick_4">
     <g id="line2d_13">
      <g>
       <use xlink:href="#m2cf05cb216" x="39.330625" y="147.432786" style="stroke: #000000; stroke-width: 0.8"/>
      </g>
     </g>
     <g id="text_14">
      <!-- 28 -->
      <g transform="translate(20.878125 150.852083) scale(0.09 -0.09)">
       <use xlink:href="#DejaVuSans-32"/>
       <use xlink:href="#DejaVuSans-38" transform="translate(63.623047 0)"/>
      </g>
     </g>
    </g>
    <g id="ytick_5">
     <g id="line2d_14">
      <g>
       <use xlink:href="#m2cf05cb216" x="39.330625" y="102.115932" style="stroke: #000000; stroke-width: 0.8"/>
      </g>
     </g>
     <g id="text_15">
      <!-- 29 -->
      <g transform="translate(20.878125 105.535229) scale(0.09 -0.09)">
       <use xlink:href="#DejaVuSans-32"/>
       <use xlink:href="#DejaVuSans-39" transform="translate(63.623047 0)"/>
      </g>
     </g>
    </g>
    <g id="ytick_6">
     <g id="line2d_15">
      <g>
       <use xlink:href="#m2cf05cb216" x="39.330625" y="56.799078" style="stroke: #000000; stroke-width: 0.8"/>
      </g>
     </g>
     <g id="text_16">
      <!-- 30 -->
      <g transform="translate(20.878125 60.218375) scale(0.09 -0.09)">
       <defs>
        <path id="DejaVuSans-33" d="M 2597 2516 
Q 3050 2419 3304 2112 
Q 3559 1806 3559 1356 
Q 3559 666 3084 287 
Q 2609 -91 1734 -91 
Q 1441 -91 1130 -33 
Q 819 25 488 141 
L 488 750 
Q 750 597 1062 519 
Q 1375 441 1716 441 
Q 2309 441 2620 675 
Q 2931 909 2931 1356 
Q 2931 1769 2642 2001 
Q 2353 2234 1838 2234 
L 1294 2234 
L 1294 2753 
L 1863 2753 
Q 2328 2753 2575 2939 
Q 2822 3125 2822 3475 
Q 2822 3834 2567 4026 
Q 2313 4219 1838 4219 
Q 1578 4219 1281 4162 
Q 984 4106 628 3988 
L 628 4550 
Q 988 4650 1302 4700 
Q 1616 4750 1894 4750 
Q 2613 4750 3031 4423 
Q 3450 4097 3450 3541 
Q 3450 3153 3228 2886 
Q 3006 2619 2597 2516 
z
" transform="scale(0.015625)"/>
       </defs>
       <use xlink:href="#DejaVuSans-33"/>
       <use xlink:href="#DejaVuSans-30" transform="translate(63.623047 0)"/>
      </g>
     </g>
    </g>
    <g id="text_17">
     <!-- SST (°C) -->
     <g transform="translate(14.798438 190.502344) rotate(-90) scale(0.1 -0.1)">
      <defs>
       <path id="DejaVuSans-53" d="M 3425 4513 
L 3425 3897 
Q 3066 4069 2747 4153 
Q 2428 4238 2131 4238 
Q 1616 4238 1336 4038 
Q 1056 3838 1056 3469 
Q 1056 3159 1242 3001 
Q 1428 2844 1947 2747 
L 2328 2669 
Q 3034 2534 3370 2195 
Q 3706 1856 3706 1288 
Q 3706 609 3251 259 
Q 2797 -91 1919 -91 
Q 1588 -91 1214 -16 
Q 841 59 441 206 
L 441 856 
Q 825 641 1194 531 
Q 1563 422 1919 422 
Q 2459 422 2753 634 
Q 3047 847 3047 1241 
Q 3047 1584 2836 1778 
Q 2625 1972 2144 2069 
L 1759 2144 
Q 1053 2284 737 2584 
Q 422 2884 422 3419 
Q 422 4038 858 4394 
Q 1294 4750 2059 4750 
Q 2388 4750 2728 4690 
Q 3069 4631 3425 4513 
z
" transform="scale(0.015625)"/>
       <path id="DejaVuSans-54" d="M -19 4666 
L 3928 4666 
L 3928 4134 
L 2272 4134 
L 2272 0 
L 1638 0 
L 1638 4134 
L -19 4134 
L -19 4666 
z
" transform="scale(0.015625)"/>
       <path id="DejaVuSans-20" transform="scale(0.015625)"/>
       <path id="DejaVuSans-28" d="M 1984 4856 
Q 1566 4138 1362 3434 
Q 1159 2731 1159 2009 
Q 1159 1288 1364 580 
Q 1569 -128 1984 -844 
L 1484 -844 
Q 1016 -109 783 600 
Q 550 1309 550 2009 
Q 550 2706 781 3412 
Q 1013 4119 1484 4856 
L 1984 4856 
z
" transform="scale(0.015625)"/>
       <path id="DejaVuSans-b0" d="M 1600 4347 
Q 1350 4347 1178 4173 
Q 1006 4000 1006 3750 
Q 1006 3503 1178 3333 
Q 1350 3163 1600 3163 
Q 1850 3163 2022 3333 
Q 2194 3503 2194 3750 
Q 2194 3997 2020 4172 
Q 1847 4347 1600 4347 
z
M 1600 4750 
Q 1800 4750 1984 4673 
Q 2169 4597 2303 4453 
Q 2447 4313 2519 4134 
Q 2591 3956 2591 3750 
Q 2591 3338 2302 3052 
Q 2013 2766 1594 2766 
Q 1172 2766 890 3047 
Q 609 3328 609 3750 
Q 609 4169 896 4459 
Q 1184 4750 1600 4750 
z
" transform="scale(0.015625)"/>
       <path id="DejaVuSans-43" d="M 4122 4306 
L 4122 3641 
Q 3803 3938 3442 4084 
Q 3081 4231 2675 4231 
Q 1875 4231 1450 3742 
Q 1025 3253 1025 2328 
Q 1025 1406 1450 917 
Q 1875 428 2675 428 
Q 3081 428 3442 575 
Q 3803 722 4122 1019 
L 4122 359 
Q 3791 134 3420 21 
Q 3050 -91 2638 -91 
Q 1578 -91 968 557 
Q 359 1206 359 2328 
Q 359 3453 968 4101 
Q 1578 4750 2638 4750 
Q 3056 4750 3426 4639 
Q 3797 4528 4122 4306 
z
" transform="scale(0.015625)"/>
       <path id="DejaVuSans-29" d="M 513 4856 
L 1013 4856 
Q 1481 4119 1714 3412 
Q 1947 2706 1947 2009 
Q 1947 1309 1714 600 
Q 1481 -109 1013 -844 
L 513 -844 
Q 928 -128 1133 580 
Q 1338 1288 1338 2009 
Q 1338 2731 1133 3434 
Q 928 4138 513 4856 
z
" transform="scale(0.015625)"/>
      </defs>
      <use xlink:href="#DejaVuSans-53"/>
      <use xlink:href="#DejaVuSans-53" transform="translate(63.476562 0)"/>
      <use xlink:href="#DejaVuSans-54" transform="translate(126.953125 0)"/>
      <use xlink:href="#DejaVuSans-20" transform="translate(188.037109 0)"/>
      <use xlink:href="#DejaVuSans-28" transform="translate(219.824219 0)"/>
      <use xlink:href="#DejaVuSans-b0" transform="translate(258.837891 0)"/>
      <use xlink:href="#DejaVuSans-43" transform="translate(308.837891 0)"/>
      <use xlink:href="#DejaVuSans-29" transform="translate(378.662109 0)"/>
     </g>
    </g>
   </g>
   <g id="line2d_16">
    <path d="M 79.439716 115.675006 
L 81.103771 122.733967 
L 82.606788 95.308479 
L 84.270843 129.075699 
L 85.881219 155.054174 
L 87.545274 218.723176 
L 89.155649 252.222844 
L 90.819704 279.87546 
L 92.483759 270.217215 
L 94.094135 243.486842 
L 95.75819 187.730889 
L 97.368565 125.616482 
L 99.03262 147.009436 
L 100.696675 113.7654 
L 102.199693 103.357478 
L 103.863747 118.780706 
L 105.474123 164.717993 
L 107.138178 221.136389 
L 108.748554 268.799931 
L 110.412609 286.516872 
L 112.076664 260.341948 
L 113.687039 217.923514 
L 115.351094 147.008303 
L 116.96147 109.745659 
L 118.625525 129.365092 
L 120.28958 118.436933 
L 121.792597 63.951165 
L 123.456652 63.136413 
L 128.341458 260.524982 
L 130.005513 253.552531 
L 131.669568 239.859228 
L 133.279944 211.572856 
L 134.943999 141.42078 
L 136.554374 126.954099 
L 138.218429 79.489408 
L 139.882484 76.246897 
L 141.439181 52.652722 
L 143.103235 94.228669 
L 144.713611 140.661995 
L 146.377666 195.541475 
L 147.988042 236.254907 
L 149.652097 253.004877 
L 151.316152 239.551209 
L 152.926527 207.281848 
L 156.200958 113.795445 
L 157.865013 145.267682 
L 159.529068 149.553569 
L 161.032085 132.868719 
L 162.69614 126.22187 
L 165.97057 223.100104 
L 167.580946 240.668134 
L 169.245001 279.586792 
L 170.909056 266.993782 
L 172.519432 230.953651 
L 174.183487 165.42684 
L 175.793862 133.494273 
L 177.457917 113.395116 
L 179.121972 78.537301 
L 180.624989 97.261636 
L 182.289044 120.965069 
L 183.89942 135.388925 
L 185.563475 184.306747 
L 187.173851 242.304752 
L 188.837906 270.497273 
L 190.50196 262.470208 
L 192.112336 234.017251 
L 193.776391 182.027355 
L 195.386767 116.399668 
L 197.050822 90.727172 
L 198.714877 124.318426 
L 200.217894 77.563351 
L 201.881949 109.650403 
L 203.492324 147.347726 
L 205.156379 204.712247 
L 206.766755 267.272888 
L 208.43081 302.836151 
L 210.094865 285.713902 
L 211.705241 238.65951 
L 213.369295 164.593825 
L 214.979671 129.355666 
L 216.643726 132.946619 
L 219.864477 104.95612 
L 221.528532 104.346745 
L 223.138908 136.94207 
L 224.802963 197.88993 
L 226.413339 234.882848 
L 228.077394 288.452309 
L 229.741448 261.568176 
L 231.351824 217.626417 
L 233.015879 168.377782 
L 234.626255 146.512854 
L 236.29031 142.057482 
L 237.954365 130.596804 
L 239.457382 125.115278 
L 241.121437 124.720522 
L 242.731812 140.985557 
L 244.395867 187.470271 
L 246.006243 249.925733 
L 247.670298 289.751725 
L 249.334353 265.450834 
L 250.944729 232.866566 
L 252.608783 159.200123 
L 254.219159 124.949282 
L 255.883214 121.959321 
L 257.547269 122.976685 
L 259.050286 81.936881 
L 260.714341 107.193051 
L 262.324717 159.752898 
L 265.599147 251.135285 
L 267.263202 273.543155 
L 268.927257 268.5917 
L 270.537633 223.819418 
L 273.812064 126.023744 
L 275.476118 151.488825 
L 278.643191 95.632268 
L 280.307246 120.504922 
L 281.917621 150.251041 
L 283.581676 209.30221 
L 285.192052 241.083146 
L 286.856107 256.741478 
L 288.520162 242.101869 
L 290.130537 213.416345 
L 291.794592 171.470658 
L 293.404968 120.043868 
L 295.069023 104.434977 
L 296.733078 95.527179 
L 298.289774 75.79613 
L 299.953829 124.323864 
L 301.564205 161.322809 
L 303.22826 218.036988 
L 304.838636 256.440756 
L 306.50269 266.915293 
L 308.166745 272.65141 
L 309.777121 232.309984 
L 311.441176 187.386617 
L 313.051552 154.782182 
L 314.715607 129.708594 
L 316.379661 154.317685 
L 317.882679 98.354361 
L 319.546734 130.628345 
L 321.157109 173.691591 
L 322.821164 202.181527 
L 324.43154 246.404205 
L 326.095595 257.109089 
L 327.75965 238.376687 
L 329.370025 216.945124 
L 331.03408 147.768402 
L 332.644456 124.266991 
L 334.308511 75.208869 
L 335.972566 104.247637 
L 337.475583 42.722712 
L 339.139638 70.279211 
L 340.750014 126.768255 
L 342.414069 193.350088 
L 344.024444 232.602323 
L 345.688499 247.949057 
L 347.352554 244.80307 
L 348.96293 198.530167 
L 350.626985 172.655376 
L 352.23736 122.210422 
L 353.901415 130.802316 
L 355.56547 96.983662 
L 357.068488 77.861581 
L 358.732542 115.093365 
L 360.342918 155.248402 
L 363.617349 244.209873 
L 365.281404 271.993636 
L 366.945459 252.074839 
L 368.555834 229.59052 
L 370.219889 171.039694 
L 371.830265 135.800176 
L 373.49432 119.342092 
L 375.158375 105.95726 
L 376.715071 110.111683 
L 378.379126 115.131567 
L 379.989502 161.755631 
L 383.263932 243.583367 
L 384.927987 273.666417 
L 386.592042 244.514447 
L 388.202418 225.408001 
L 389.866473 175.388481 
L 391.476848 117.634915 
L 393.140903 171.95088 
L 394.804958 123.002198 
L 396.307976 72.777982 
L 397.97203 106.069918 
L 399.582406 126.219468 
L 401.246461 206.441311 
L 402.856837 261.079389 
L 404.520892 280.081199 
L 406.184947 249.189107 
L 407.795322 203.051973 
L 409.459377 158.97236 
L 411.069753 123.726089 
L 412.733808 115.214542 
L 414.397863 112.89663 
L 415.90088 79.485239 
L 417.564935 114.044506 
L 419.175311 137.385903 
L 420.839366 189.923907 
L 422.449741 237.073012 
L 424.113796 250.894652 
L 425.777851 237.910603 
L 427.388227 211.312329 
L 429.052282 144.801191 
L 430.662657 119.410565 
L 432.326712 131.677385 
L 433.990767 105.372537 
L 435.493784 64.914873 
L 437.157839 91.030115 
L 438.768215 147.39259 
L 440.43227 183.578369 
L 442.042646 232.364908 
L 443.706701 270.069165 
L 445.370755 243.901038 
L 446.981131 209.986811 
L 448.645186 151.00253 
L 451.919617 84.628203 
L 453.583672 104.975652 
L 455.140368 106.095839 
L 456.804423 112.64349 
L 458.414799 154.339981 
L 460.078854 217.043869 
L 461.689229 252.733928 
L 463.353284 251.851563 
L 465.017339 244.52632 
L 466.627715 207.353902 
L 468.29177 165.781308 
L 469.902145 128.409133 
L 471.5662 114.99258 
L 473.230255 97.599881 
L 474.733272 77.854738 
L 476.397327 84.608581 
L 481.282134 230.74329 
L 482.946189 253.864311 
L 484.610243 240.688436 
L 486.220619 218.109948 
L 487.884674 167.593393 
L 489.49505 122.620313 
L 491.159105 101.862656 
L 492.82316 87.551548 
L 494.326177 107.231298 
L 495.990232 124.742546 
L 497.600607 164.799926 
L 499.264662 200.516087 
L 500.875038 240.579268 
L 502.539093 256.464275 
L 504.203148 257.006219 
L 505.813524 220.576726 
L 507.477578 170.471104 
L 509.087954 125.727735 
L 510.752009 131.214292 
L 513.919081 75.346133 
L 515.583136 82.819064 
L 517.193512 111.707697 
L 518.857567 171.545748 
L 520.467943 233.76248 
L 522.131997 248.537496 
L 523.796052 226.788533 
L 525.406428 196.525893 
L 527.070483 153.72059 
L 528.680859 117.881348 
L 530.344913 99.957218 
L 532.008968 146.671553 
L 533.565665 97.409867 
L 535.22972 143.229693 
L 536.840096 149.646378 
L 538.50415 208.655311 
L 540.114526 255.755248 
L 541.778581 272.423829 
L 543.442636 251.02018 
L 545.053012 196.927899 
L 546.717067 144.863229 
L 548.327442 113.881093 
L 549.991497 105.013582 
L 551.655552 90.597747 
L 553.158569 68.92972 
L 556.433 145.909369 
L 558.097055 170.765573 
L 559.707431 237.608657 
L 561.371485 255.025329 
L 563.03554 239.782144 
L 564.645916 189.542475 
L 566.309971 130.765881 
L 567.920347 81.079622 
L 569.584402 114.105684 
L 572.751474 53.954856 
L 574.415529 70.840868 
L 576.025904 111.485826 
L 577.689959 162.497377 
L 579.300335 218.243497 
L 580.96439 261.547195 
L 582.628445 248.896723 
L 584.23882 194.251168 
L 585.902875 152.119364 
L 587.513251 117.433346 
L 589.177306 102.025615 
L 590.841361 113.021433 
L 592.344378 75.966385 
L 594.008433 83.833346 
L 595.618809 130.366459 
L 597.282864 172.769212 
L 598.893239 230.434682 
L 600.557294 241.686132 
L 602.221349 242.121763 
L 603.831725 212.883827 
L 605.49578 133.475784 
L 607.106155 105.179034 
L 608.77021 139.401597 
L 610.434265 122.974011 
L 611.990962 90.674423 
L 613.655017 100.789961 
L 615.265392 160.950622 
L 616.929447 206.732653 
L 618.539823 243.175561 
L 620.203878 251.085663 
L 621.867933 225.732197 
L 623.478308 203.475867 
L 626.752739 92.804633 
L 628.416794 100.809719 
L 630.080849 107.12571 
L 631.583866 92.329078 
L 633.247921 109.322445 
L 636.522352 207.162574 
L 638.132727 261.411471 
L 639.796782 267.034839 
L 641.460837 250.212588 
L 643.071213 209.450622 
L 644.735268 147.044964 
L 646.345643 98.743859 
L 648.009698 121.006036 
L 649.673753 120.95945 
L 651.176771 91.547452 
L 652.840826 111.30832 
L 654.451201 142.164928 
L 656.115256 180.217445 
L 657.725632 234.54193 
L 659.389687 242.421171 
L 661.053742 244.815986 
L 662.664117 205.5773 
L 664.328172 134.090824 
L 665.938548 93.369462 
L 667.602603 140.792417 
L 669.266658 116.341663 
L 670.769675 105.343489 
L 672.43373 86.536088 
L 675.708161 172.987232 
L 677.318536 221.120709 
L 678.982591 230.684786 
L 680.646646 215.540845 
L 682.257022 175.611259 
L 683.921077 147.192742 
L 685.531452 85.92354 
L 687.195507 76.94106 
L 688.859562 102.472032 
L 690.416259 37.713341 
L 692.080314 59.501911 
L 695.354744 198.903668 
L 696.96512 249.676082 
L 698.629175 255.273801 
L 700.29323 245.096497 
L 701.903605 210.570991 
L 705.178036 99.284127 
L 706.842091 103.075516 
L 708.506146 95.807463 
L 710.009163 69.254959 
L 711.673218 95.053074 
L 713.283594 138.987129 
L 714.947649 169.758949 
L 716.558024 210.512985 
L 718.222079 234.381689 
L 719.886134 223.077446 
L 721.49651 185.8211 
L 723.160565 129.355757 
L 724.77094 104.381321 
L 726.434995 143.834174 
L 728.09905 97.144945 
L 729.602067 92.994601 
L 731.266122 92.977607 
L 732.876498 125.761632 
L 734.540553 182.859236 
L 736.150929 221.531144 
L 737.814984 231.791559 
L 739.479038 224.363583 
L 741.089414 207.580486 
L 742.753469 161.994043 
L 744.363845 87.338922 
L 746.0279 86.441965 
L 747.691955 85.336551 
L 749.194972 65.327257 
L 750.859027 73.760044 
L 752.469402 132.903251 
L 754.133457 177.17469 
L 755.743833 227.44735 
L 757.407888 240.199694 
L 759.071943 227.188319 
L 762.346373 129.335183 
L 763.956749 89.376095 
L 765.620804 96.268064 
L 767.284859 67.950921 
L 768.841556 48.489644 
L 770.50561 76.841046 
L 772.115986 126.077536 
L 773.780041 180.530856 
L 775.390417 237.121048 
L 777.054472 255.55318 
L 778.718526 244.542544 
L 780.328902 175.197289 
L 783.603333 103.210289 
L 785.267388 111.184106 
L 786.931443 91.875229 
L 788.43446 82.875166 
L 790.098515 113.584404 
L 791.708891 158.062987 
L 793.372945 198.122406 
L 794.983321 240.82058 
L 796.647376 259.757043 
L 798.311431 241.361754 
L 799.921807 210.481218 
L 801.585862 139.237006 
L 803.196237 104.334283 
L 804.860292 98.834085 
L 806.524347 115.151461 
L 808.027364 95.511091 
L 809.691419 80.862871 
L 811.301795 139.597366 
L 812.96585 189.194396 
L 814.576226 254.225532 
L 816.24028 260.517641 
L 817.904335 256.521827 
L 819.514711 227.896893 
L 821.178766 174.177887 
L 822.789142 118.318882 
L 824.453197 108.47443 
L 826.117251 108.147016 
L 827.620269 97.117574 
L 829.284324 88.17674 
L 830.894699 119.203286 
L 832.558754 170.882173 
L 834.16913 217.34083 
L 835.833185 237.85509 
L 837.49724 210.146417 
L 840.77167 127.509593 
L 842.382046 78.710457 
L 844.046101 85.795701 
L 845.710156 61.737528 
L 847.266852 36.399787 
L 848.930907 78.680185 
L 850.541283 123.707238 
L 852.205338 161.337492 
L 853.815714 193.542231 
L 855.479768 213.061333 
L 857.143823 204.23642 
L 858.754199 176.788545 
L 860.418254 119.161549 
L 862.02863 89.456986 
L 863.692685 102.408362 
L 865.356739 102.567968 
L 866.859757 72.870383 
L 868.523812 89.244359 
L 870.134187 122.739768 
L 871.798242 167.007537 
L 873.408618 227.452606 
L 875.072673 251.466325 
L 876.736728 225.206794 
L 878.347103 197.332533 
L 880.011158 140.21934 
L 881.621534 96.240013 
L 881.621534 96.240013 
" clip-path="url(#pdf42bfc10c)" style="fill: none; stroke: #1565c0; stroke-opacity: 0.55; stroke-width: 0.7; stroke-linecap: square"/>
   </g>
   <g id="line2d_17">
    <path d="M 79.439716 182.976686 
L 81.103771 183.868059 
L 82.606788 180.786164 
L 84.270843 174.94744 
L 85.881219 168.637586 
L 87.545274 163.839358 
L 89.155649 162.544089 
L 90.819704 164.630621 
L 95.75819 180.68662 
L 97.368565 181.69805 
L 99.03262 181.450994 
L 100.696675 182.021414 
L 102.199693 181.842371 
L 103.863747 180.535817 
L 105.474123 177.788346 
L 108.748554 175.598498 
L 110.412609 175.944421 
L 112.076664 174.847632 
L 115.351094 172.252966 
L 116.96147 170.323378 
L 118.625525 170.379113 
L 120.28958 167.565778 
L 121.792597 166.002507 
L 123.456652 163.889809 
L 128.341458 160.798019 
L 131.669568 158.045644 
L 133.279944 157.179363 
L 134.943999 156.73596 
L 136.554374 157.260252 
L 138.218429 157.428993 
L 139.882484 158.091601 
L 141.439181 159.388127 
L 144.713611 164.888252 
L 146.377666 166.883742 
L 147.988042 168.086954 
L 149.652097 167.259585 
L 152.926527 169.474953 
L 154.590582 170.282486 
L 156.200958 171.282738 
L 157.865013 171.555245 
L 159.529068 172.967983 
L 161.032085 173.063417 
L 162.69614 174.922121 
L 164.306516 176.036138 
L 165.97057 175.816427 
L 167.580946 175.348313 
L 169.245001 175.60039 
L 170.909056 176.32924 
L 175.793862 179.333009 
L 177.457917 179.441518 
L 179.121972 177.168997 
L 180.624989 176.117533 
L 182.289044 173.813143 
L 183.89942 173.122665 
L 185.563475 171.975081 
L 187.173851 171.208921 
L 188.837906 172.317452 
L 190.50196 173.286175 
L 192.112336 174.06618 
L 193.776391 174.387258 
L 195.386767 174.352549 
L 197.050822 174.180107 
L 198.714877 174.994753 
L 200.217894 176.639022 
L 201.881949 176.959626 
L 203.492324 176.267196 
L 205.156379 176.33191 
L 206.766755 176.897876 
L 208.43081 176.58863 
L 210.094865 177.336756 
L 211.705241 177.299172 
L 214.979671 176.047488 
L 216.643726 177.302204 
L 218.307781 179.440967 
L 219.864477 179.702566 
L 221.528532 181.683896 
L 223.138908 182.311818 
L 224.802963 182.046728 
L 228.077394 180.605514 
L 229.741448 180.060329 
L 231.351824 179.216035 
L 236.29031 178.566325 
L 237.954365 178.108521 
L 239.457382 178.315893 
L 241.121437 177.356758 
L 242.731812 177.475354 
L 244.395867 178.425805 
L 246.006243 178.827294 
L 247.670298 179.504479 
L 249.334353 178.883264 
L 254.219159 179.663594 
L 255.883214 178.809881 
L 257.547269 179.202853 
L 259.050286 178.829188 
L 260.714341 177.600729 
L 262.324717 177.425079 
L 263.988772 177.811141 
L 265.599147 178.720805 
L 267.263202 178.352364 
L 268.927257 176.976937 
L 270.537633 176.004063 
L 272.201688 175.193637 
L 273.812064 175.70491 
L 275.476118 175.500517 
L 277.140173 174.770336 
L 278.643191 173.626607 
L 280.307246 173.370742 
L 281.917621 174.084526 
L 283.581676 174.149939 
L 285.192052 174.587912 
L 286.856107 174.808973 
L 288.520162 174.532812 
L 290.130537 174.701967 
L 291.794592 175.05574 
L 293.404968 175.618134 
L 295.069023 176.816402 
L 296.733078 175.908892 
L 298.289774 177.270928 
L 299.953829 177.384349 
L 301.564205 177.806158 
L 303.22826 178.782847 
L 304.838636 178.486152 
L 306.50269 178.707863 
L 308.166745 178.72318 
L 309.777121 178.567964 
L 311.441176 178.714997 
L 313.051552 177.727403 
L 314.715607 177.903366 
L 316.379661 176.685612 
L 317.882679 177.048964 
L 319.546734 175.670905 
L 321.157109 173.419044 
L 322.821164 171.979271 
L 326.095595 169.957383 
L 327.75965 169.167123 
L 329.370025 168.006775 
L 331.03408 166.599283 
L 332.644456 165.985481 
L 334.308511 164.628324 
L 335.972566 164.673896 
L 337.475583 162.284979 
L 339.139638 161.431113 
L 342.414069 160.015356 
L 345.688499 159.836845 
L 348.96293 161.027791 
L 350.626985 161.554682 
L 352.23736 162.52432 
L 353.901415 163.004869 
L 355.56547 164.843753 
L 357.068488 164.914988 
L 358.732542 167.722861 
L 360.342918 169.59171 
L 362.006973 171.049517 
L 365.281404 171.896368 
L 366.945459 172.967925 
L 368.555834 172.955899 
L 370.219889 174.075808 
L 371.830265 174.189688 
L 373.49432 173.999042 
L 375.158375 175.713565 
L 376.715071 176.797671 
L 378.379126 176.585854 
L 379.989502 176.209877 
L 381.653557 175.000338 
L 383.263932 175.264909 
L 384.927987 175.967806 
L 386.592042 176.304788 
L 388.202418 176.184549 
L 389.866473 175.078776 
L 393.140903 174.072884 
L 394.804958 173.900902 
L 396.307976 174.190043 
L 397.97203 172.913941 
L 399.582406 172.868647 
L 401.246461 171.853241 
L 402.856837 171.321176 
L 404.520892 171.049911 
L 406.184947 170.101088 
L 407.795322 169.825928 
L 409.459377 169.238608 
L 411.069753 167.964138 
L 412.733808 168.038123 
L 414.397863 166.360061 
L 415.90088 165.625492 
L 417.564935 165.297862 
L 419.175311 164.671204 
L 420.839366 165.553417 
L 422.449741 164.600794 
L 424.113796 163.404358 
L 425.777851 162.98719 
L 427.388227 162.766853 
L 429.052282 163.055805 
L 430.662657 162.723729 
L 432.326712 162.535688 
L 433.990767 161.261258 
L 435.493784 160.931217 
L 437.157839 162.039992 
L 438.768215 161.981616 
L 440.43227 162.688036 
L 442.042646 163.818035 
L 443.706701 164.470573 
L 445.370755 164.510444 
L 446.981131 164.786099 
L 448.645186 164.621164 
L 450.255562 165.495336 
L 451.919617 165.870276 
L 453.583672 165.175076 
L 455.140368 164.851215 
L 456.804423 165.390376 
L 458.414799 165.122813 
L 460.078854 164.526159 
L 463.353284 164.390575 
L 465.017339 163.715373 
L 466.627715 163.581515 
L 468.29177 163.919979 
L 469.902145 164.611265 
L 471.5662 164.753231 
L 473.230255 165.471333 
L 474.733272 164.745329 
L 476.397327 164.79264 
L 479.671758 165.732598 
L 481.282134 165.04394 
L 482.946189 164.537496 
L 484.610243 164.729693 
L 487.884674 165.800639 
L 489.49505 165.996048 
L 491.159105 165.884323 
L 492.82316 166.560227 
L 494.326177 166.753553 
L 497.600607 166.574464 
L 499.264662 165.684247 
L 500.875038 165.250904 
L 502.539093 165.376704 
L 504.203148 165.154753 
L 505.813524 164.575591 
L 507.477578 163.676255 
L 509.087954 163.098222 
L 510.752009 162.900765 
L 512.416064 162.821372 
L 513.919081 165.284705 
L 515.583136 164.875479 
L 517.193512 165.645777 
L 518.857567 165.014379 
L 520.467943 165.353513 
L 523.796052 166.650827 
L 525.406428 166.401409 
L 528.680859 164.349046 
L 530.344913 163.855436 
L 532.008968 162.76374 
L 533.565665 162.278659 
L 535.22972 162.011308 
L 536.840096 163.077602 
L 538.50415 164.502672 
L 540.114526 164.470165 
L 543.442636 164.900749 
L 545.053012 165.442149 
L 546.717067 165.151173 
L 548.327442 164.194727 
L 549.991497 162.661322 
L 551.655552 163.250841 
L 553.158569 160.564704 
L 554.822624 158.754078 
L 556.433 155.737877 
L 558.097055 154.147854 
L 559.707431 152.224607 
L 561.371485 150.661617 
L 563.03554 150.208424 
L 566.309971 150.008416 
L 567.920347 150.310755 
L 569.584402 150.458766 
L 571.248456 150.334267 
L 572.751474 151.268587 
L 574.415529 151.561782 
L 576.025904 150.537749 
L 577.689959 149.890128 
L 579.300335 149.973613 
L 580.96439 149.674697 
L 582.628445 149.118897 
L 584.23882 149.216382 
L 585.902875 150.188938 
L 587.513251 150.301851 
L 590.841361 152.359989 
L 592.344378 154.058729 
L 594.008433 155.588711 
L 595.618809 156.83659 
L 598.893239 160.74076 
L 600.557294 161.779596 
L 602.221349 161.343698 
L 603.831725 160.37851 
L 605.49578 160.762872 
L 607.106155 160.570142 
L 608.77021 159.543945 
L 610.434265 159.493283 
L 611.990962 159.247628 
L 613.655017 159.929407 
L 616.929447 162.148845 
L 618.539823 163.581902 
L 620.203878 164.872601 
L 621.867933 165.928797 
L 623.478308 166.265915 
L 625.142363 166.122865 
L 626.752739 166.688247 
L 628.416794 166.420115 
L 630.080849 165.653633 
L 631.583866 165.569693 
L 633.247921 165.60607 
L 634.858297 166.044335 
L 636.522352 165.261597 
L 638.132727 164.156797 
L 641.460837 163.436042 
L 643.071213 164.2312 
L 644.735268 164.318759 
L 646.345643 163.760301 
L 648.009698 163.783835 
L 649.673753 165.449781 
L 651.176771 165.833779 
L 652.840826 166.376046 
L 654.451201 165.426615 
L 656.115256 164.199523 
L 657.725632 162.775551 
L 659.389687 161.096769 
L 664.328172 156.727554 
L 665.938548 156.733711 
L 667.602603 156.199531 
L 669.266658 154.363491 
L 670.769675 153.593182 
L 674.044106 149.191493 
L 675.708161 148.654555 
L 677.318536 149.433147 
L 680.646646 150.599263 
L 682.257022 150.610951 
L 683.921077 150.819022 
L 685.531452 151.69537 
L 687.195507 151.941815 
L 688.859562 150.370277 
L 690.416259 149.514685 
L 692.080314 148.010997 
L 695.354744 148.794765 
L 696.96512 148.660253 
L 698.629175 148.218265 
L 700.29323 148.372302 
L 703.56766 149.111737 
L 705.178036 148.36853 
L 706.842091 149.137604 
L 708.506146 151.924817 
L 710.009163 151.702855 
L 711.673218 154.006241 
L 713.283594 155.401062 
L 714.947649 155.254529 
L 716.558024 154.586011 
L 718.222079 153.413306 
L 721.49651 151.571008 
L 723.160565 151.446403 
L 724.77094 151.732689 
L 726.434995 151.234972 
L 728.09905 150.541907 
L 729.602067 150.105619 
L 731.266122 149.941965 
L 732.876498 149.054755 
L 734.540553 148.80126 
L 736.150929 149.11025 
L 737.814984 149.815848 
L 741.089414 150.229551 
L 742.753469 149.978928 
L 744.363845 149.978071 
L 746.0279 149.352853 
L 747.691955 147.370932 
L 749.194972 146.154514 
L 750.859027 144.300141 
L 752.469402 143.627784 
L 755.743833 143.543931 
L 757.407888 144.193511 
L 760.682319 146.024368 
L 762.346373 144.675068 
L 763.956749 143.665464 
L 765.620804 144.32677 
L 767.284859 145.357693 
L 768.841556 145.630138 
L 770.50561 146.361301 
L 772.115986 148.020649 
L 773.780041 149.068972 
L 775.390417 149.941793 
L 777.054472 150.499011 
L 778.718526 151.3139 
L 780.328902 151.90446 
L 781.992957 153.182588 
L 783.603333 153.595164 
L 785.267388 154.218422 
L 786.931443 154.325339 
L 788.43446 156.292029 
L 790.098515 158.251256 
L 791.708891 158.418832 
L 793.372945 158.982158 
L 794.983321 159.343139 
L 796.647376 160.055826 
L 798.311431 160.262678 
L 799.921807 160.761815 
L 801.585862 162.957632 
L 803.196237 164.474897 
L 804.860292 165.104421 
L 806.524347 164.991518 
L 808.027364 165.669509 
L 809.691419 166.262943 
L 811.301795 165.20429 
L 812.96585 163.585136 
L 814.576226 162.450126 
L 817.904335 160.559222 
L 819.514711 159.258583 
L 821.178766 157.493222 
L 822.789142 157.00458 
L 824.453197 155.93692 
L 826.117251 155.393654 
L 829.284324 150.705103 
L 830.894699 150.614157 
L 832.558754 149.952069 
L 834.16913 148.791364 
L 835.833185 146.262893 
L 837.49724 144.285547 
L 842.382046 137.685127 
L 844.046101 136.482548 
L 847.266852 135.997334 
L 848.930907 134.987035 
L 853.815714 135.017429 
L 855.479768 135.438753 
L 858.754199 136.633404 
L 860.418254 137.850903 
L 862.02863 138.380476 
L 863.692685 139.110874 
L 865.356739 139.546054 
L 866.859757 142.816129 
L 870.134187 155.626936 
L 871.798242 160.950231 
L 873.408618 163.705028 
L 875.072673 162.599415 
L 876.736728 158.836017 
L 878.347103 154.044681 
L 880.011158 149.714757 
L 881.621534 149.023358 
L 881.621534 149.023358 
" clip-path="url(#pdf42bfc10c)" style="fill: none; stroke: #d32f2f; stroke-opacity: 0.85; stroke-width: 1.8; stroke-linecap: square"/>
   </g>
   <g id="line2d_18">
    <path d="M 79.439716 178.7609 
L 237.954365 172.720228 
L 272.201688 171.412454 
L 469.902145 163.877182 
L 630.080849 157.774235 
L 664.328172 156.46646 
L 862.02863 148.931188 
L 881.621534 148.183889 
L 881.621534 148.183889 
" clip-path="url(#pdf42bfc10c)" style="fill: none; stroke-dasharray: 5.55,2.4; stroke-dashoffset: 0; stroke: #212121; stroke-width: 1.5"/>
   </g>
   <g id="line2d_19">
    <path d="M 336.724074 316.157969 
L 336.724074 23.077969 
" clip-path="url(#pdf42bfc10c)" style="fill: none; stroke-dasharray: 1,1.65; stroke-dashoffset: 0; stroke: #9e9e9e; stroke-opacity: 0.9"/>
   </g>
   <g id="line2d_20">
    <path d="M 571.999965 316.157969 
L 571.999965 23.077969 
" clip-path="url(#pdf42bfc10c)" style="fill: none; stroke-dasharray: 1,1.65; stroke-dashoffset: 0; stroke: #9e9e9e; stroke-opacity: 0.9"/>
   </g>
   <g id="line2d_21">
    <path d="M 689.66475 316.157969 
L 689.66475 23.077969 
" clip-path="url(#pdf42bfc10c)" style="fill: none; stroke-dasharray: 1,1.65; stroke-dashoffset: 0; stroke: #9e9e9e; stroke-opacity: 0.9"/>
   </g>
   <g id="line2d_22">
    <path d="M 846.515344 316.157969 
L 846.515344 23.077969 
" clip-path="url(#pdf42bfc10c)" style="fill: none; stroke-dasharray: 1,1.65; stroke-dashoffset: 0; stroke: #9e9e9e; stroke-opacity: 0.9"/>
   </g>
   <g id="patch_3">
    <path d="M 39.330625 316.157969 
L 39.330625 23.077969 
" style="fill: none; stroke: #000000; stroke-width: 0.8; stroke-linejoin: miter; stroke-linecap: square"/>
   </g>
   <g id="patch_4">
    <path d="M 39.330625 316.157969 
L 921.730625 316.157969 
" style="fill: none; stroke: #000000; stroke-width: 0.8; stroke-linejoin: miter; stroke-linecap: square"/>
   </g>
   <g id="text_18">
    <!-- 1998 -->
    <g style="fill: #616161" transform="translate(326.544074 30.204352) scale(0.08 -0.08)">
     <use xlink:href="#DejaVuSans-31"/>
     <use xlink:href="#DejaVuSans-39" transform="translate(63.623047 0)"/>
     <use xlink:href="#DejaVuSans-39" transform="translate(127.246094 0)"/>
     <use xlink:href="#DejaVuSans-38" transform="translate(190.869141 0)"/>
    </g>
   </g>
   <g id="text_19">
    <!-- 2010 -->
    <g style="fill: #616161" transform="translate(561.819965 30.204352) scale(0.08 -0.08)">
     <use xlink:href="#DejaVuSans-32"/>
     <use xlink:href="#DejaVuSans-30" transform="translate(63.623047 0)"/>
     <use xlink:href="#DejaVuSans-31" transform="translate(127.246094 0)"/>
     <use xlink:href="#DejaVuSans-30" transform="translate(190.869141 0)"/>
    </g>
   </g>
   <g id="text_20">
    <!-- 2016 -->
    <g style="fill: #616161" transform="translate(679.48475 30.204352) scale(0.08 -0.08)">
     <use xlink:href="#DejaVuSans-32"/>
     <use xlink:href="#DejaVuSans-30" transform="translate(63.623047 0)"/>
     <use xlink:href="#DejaVuSans-31" transform="translate(127.246094 0)"/>
     <use xlink:href="#DejaVuSans-36" transform="translate(190.869141 0)"/>
    </g>
   </g>
   <g id="text_21">
    <!-- 2024 -->
    <g style="fill: #616161" transform="translate(836.335344 30.204352) scale(0.08 -0.08)">
     <defs>
      <path id="DejaVuSans-34" d="M 2419 4116 
L 825 1625 
L 2419 1625 
L 2419 4116 
z
M 2253 4666 
L 3047 4666 
L 3047 1625 
L 3713 1625 
L 3713 1100 
L 3047 1100 
L 3047 0 
L 2419 0 
L 2419 1100 
L 313 1100 
L 313 1709 
L 2253 4666 
z
" transform="scale(0.015625)"/>
     </defs>
     <use xlink:href="#DejaVuSans-32"/>
     <use xlink:href="#DejaVuSans-30" transform="translate(63.623047 0)"/>
     <use xlink:href="#DejaVuSans-32" transform="translate(127.246094 0)"/>
     <use xlink:href="#DejaVuSans-34" transform="translate(190.869141 0)"/>
    </g>
   </g>
   <g id="text_22">
    <!-- Sea Surface Temperature — Mafia Island MPA (1985 to 2024) -->
    <g transform="translate(257.599922 17.077969) scale(0.13 -0.13)">
     <defs>
      <path id="DejaVuSans-Bold-53" d="M 3834 4519 
L 3834 3531 
Q 3450 3703 3084 3790 
Q 2719 3878 2394 3878 
Q 1963 3878 1756 3759 
Q 1550 3641 1550 3391 
Q 1550 3203 1689 3098 
Q 1828 2994 2194 2919 
L 2706 2816 
Q 3484 2659 3812 2340 
Q 4141 2022 4141 1434 
Q 4141 663 3683 286 
Q 3225 -91 2284 -91 
Q 1841 -91 1394 -6 
Q 947 78 500 244 
L 500 1259 
Q 947 1022 1364 901 
Q 1781 781 2169 781 
Q 2563 781 2772 912 
Q 2981 1044 2981 1288 
Q 2981 1506 2839 1625 
Q 2697 1744 2272 1838 
L 1806 1941 
Q 1106 2091 782 2419 
Q 459 2747 459 3303 
Q 459 4000 909 4375 
Q 1359 4750 2203 4750 
Q 2588 4750 2994 4692 
Q 3400 4634 3834 4519 
z
" transform="scale(0.015625)"/>
      <path id="DejaVuSans-Bold-65" d="M 4031 1759 
L 4031 1441 
L 1416 1441 
Q 1456 1047 1700 850 
Q 1944 653 2381 653 
Q 2734 653 3104 758 
Q 3475 863 3866 1075 
L 3866 213 
Q 3469 63 3072 -14 
Q 2675 -91 2278 -91 
Q 1328 -91 801 392 
Q 275 875 275 1747 
Q 275 2603 792 3093 
Q 1309 3584 2216 3584 
Q 3041 3584 3536 3087 
Q 4031 2591 4031 1759 
z
M 2881 2131 
Q 2881 2450 2695 2645 
Q 2509 2841 2209 2841 
Q 1884 2841 1681 2658 
Q 1478 2475 1428 2131 
L 2881 2131 
z
" transform="scale(0.015625)"/>
      <path id="DejaVuSans-Bold-61" d="M 2106 1575 
Q 1756 1575 1579 1456 
Q 1403 1338 1403 1106 
Q 1403 894 1545 773 
Q 1688 653 1941 653 
Q 2256 653 2472 879 
Q 2688 1106 2688 1447 
L 2688 1575 
L 2106 1575 
z
M 3816 1997 
L 3816 0 
L 2688 0 
L 2688 519 
Q 2463 200 2181 54 
Q 1900 -91 1497 -91 
Q 953 -91 614 226 
Q 275 544 275 1050 
Q 275 1666 698 1953 
Q 1122 2241 2028 2241 
L 2688 2241 
L 2688 2328 
Q 2688 2594 2478 2717 
Q 2269 2841 1825 2841 
Q 1466 2841 1156 2769 
Q 847 2697 581 2553 
L 581 3406 
Q 941 3494 1303 3539 
Q 1666 3584 2028 3584 
Q 2975 3584 3395 3211 
Q 3816 2838 3816 1997 
z
" transform="scale(0.015625)"/>
      <path id="DejaVuSans-Bold-20" transform="scale(0.015625)"/>
      <path id="DejaVuSans-Bold-75" d="M 500 1363 
L 500 3500 
L 1625 3500 
L 1625 3150 
Q 1625 2866 1622 2436 
Q 1619 2006 1619 1863 
Q 1619 1441 1641 1255 
Q 1663 1069 1716 984 
Q 1784 875 1895 815 
Q 2006 756 2150 756 
Q 2500 756 2700 1025 
Q 2900 1294 2900 1772 
L 2900 3500 
L 4019 3500 
L 4019 0 
L 2900 0 
L 2900 506 
Q 2647 200 2364 54 
Q 2081 -91 1741 -91 
Q 1134 -91 817 281 
Q 500 653 500 1363 
z
" transform="scale(0.015625)"/>
      <path id="DejaVuSans-Bold-72" d="M 3138 2547 
Q 2991 2616 2845 2648 
Q 2700 2681 2553 2681 
Q 2122 2681 1889 2404 
Q 1656 2128 1656 1613 
L 1656 0 
L 538 0 
L 538 3500 
L 1656 3500 
L 1656 2925 
Q 1872 3269 2151 3426 
Q 2431 3584 2822 3584 
Q 2878 3584 2943 3579 
Q 3009 3575 3134 3559 
L 3138 2547 
z
" transform="scale(0.015625)"/>
      <path id="DejaVuSans-Bold-66" d="M 2841 4863 
L 2841 4128 
L 2222 4128 
Q 1984 4128 1890 4042 
Q 1797 3956 1797 3744 
L 1797 3500 
L 2753 3500 
L 2753 2700 
L 1797 2700 
L 1797 0 
L 678 0 
L 678 2700 
L 122 2700 
L 122 3500 
L 678 3500 
L 678 3744 
Q 678 4316 997 4589 
Q 1316 4863 1984 4863 
L 2841 4863 
z
" transform="scale(0.015625)"/>
      <path id="DejaVuSans-Bold-63" d="M 3366 3391 
L 3366 2478 
Q 3138 2634 2908 2709 
Q 2678 2784 2431 2784 
Q 1963 2784 1702 2511 
Q 1441 2238 1441 1747 
Q 1441 1256 1702 982 
Q 1963 709 2431 709 
Q 2694 709 2930 787 
Q 3166 866 3366 1019 
L 3366 103 
Q 3103 6 2833 -42 
Q 2563 -91 2291 -91 
Q 1344 -91 809 395 
Q 275 881 275 1747 
Q 275 2613 809 3098 
Q 1344 3584 2291 3584 
Q 2566 3584 2833 3536 
Q 3100 3488 3366 3391 
z
" transform="scale(0.015625)"/>
      <path id="DejaVuSans-Bold-54" d="M 31 4666 
L 4331 4666 
L 4331 3756 
L 2784 3756 
L 2784 0 
L 1581 0 
L 1581 3756 
L 31 3756 
L 31 4666 
z
" transform="scale(0.015625)"/>
      <path id="DejaVuSans-Bold-6d" d="M 3781 2919 
Q 3994 3244 4286 3414 
Q 4578 3584 4928 3584 
Q 5531 3584 5847 3212 
Q 6163 2841 6163 2131 
L 6163 0 
L 5038 0 
L 5038 1825 
Q 5041 1866 5042 1909 
Q 5044 1953 5044 2034 
Q 5044 2406 4934 2573 
Q 4825 2741 4581 2741 
Q 4263 2741 4089 2478 
Q 3916 2216 3909 1719 
L 3909 0 
L 2784 0 
L 2784 1825 
Q 2784 2406 2684 2573 
Q 2584 2741 2328 2741 
Q 2006 2741 1831 2477 
Q 1656 2213 1656 1722 
L 1656 0 
L 531 0 
L 531 3500 
L 1656 3500 
L 1656 2988 
Q 1863 3284 2130 3434 
Q 2397 3584 2719 3584 
Q 3081 3584 3359 3409 
Q 3638 3234 3781 2919 
z
" transform="scale(0.015625)"/>
      <path id="DejaVuSans-Bold-70" d="M 1656 506 
L 1656 -1331 
L 538 -1331 
L 538 3500 
L 1656 3500 
L 1656 2988 
Q 1888 3294 2169 3439 
Q 2450 3584 2816 3584 
Q 3463 3584 3878 3070 
Q 4294 2556 4294 1747 
Q 4294 938 3878 423 
Q 3463 -91 2816 -91 
Q 2450 -91 2169 54 
Q 1888 200 1656 506 
z
M 2400 2772 
Q 2041 2772 1848 2508 
Q 1656 2244 1656 1747 
Q 1656 1250 1848 986 
Q 2041 722 2400 722 
Q 2759 722 2948 984 
Q 3138 1247 3138 1747 
Q 3138 2247 2948 2509 
Q 2759 2772 2400 2772 
z
" transform="scale(0.015625)"/>
      <path id="DejaVuSans-Bold-74" d="M 1759 4494 
L 1759 3500 
L 2913 3500 
L 2913 2700 
L 1759 2700 
L 1759 1216 
Q 1759 972 1856 886 
Q 1953 800 2241 800 
L 2816 800 
L 2816 0 
L 1856 0 
Q 1194 0 917 276 
Q 641 553 641 1216 
L 641 2700 
L 84 2700 
L 84 3500 
L 641 3500 
L 641 4494 
L 1759 4494 
z
" transform="scale(0.015625)"/>
      <path id="DejaVuSans-Bold-2014" d="M 344 2156 
L 6056 2156 
L 6056 1350 
L 344 1350 
L 344 2156 
z
" transform="scale(0.015625)"/>
      <path id="DejaVuSans-Bold-4d" d="M 588 4666 
L 2119 4666 
L 3181 2169 
L 4250 4666 
L 5778 4666 
L 5778 0 
L 4641 0 
L 4641 3413 
L 3566 897 
L 2803 897 
L 1728 3413 
L 1728 0 
L 588 0 
L 588 4666 
z
" transform="scale(0.015625)"/>
      <path id="DejaVuSans-Bold-69" d="M 538 3500 
L 1656 3500 
L 1656 0 
L 538 0 
L 538 3500 
z
M 538 4863 
L 1656 4863 
L 1656 3950 
L 538 3950 
L 538 4863 
z
" transform="scale(0.015625)"/>
      <path id="DejaVuSans-Bold-49" d="M 588 4666 
L 1791 4666 
L 1791 0 
L 588 0 
L 588 4666 
z
" transform="scale(0.015625)"/>
      <path id="DejaVuSans-Bold-73" d="M 3272 3391 
L 3272 2541 
Q 2913 2691 2578 2766 
Q 2244 2841 1947 2841 
Q 1628 2841 1473 2761 
Q 1319 2681 1319 2516 
Q 1319 2381 1436 2309 
Q 1553 2238 1856 2203 
L 2053 2175 
Q 2913 2066 3209 1816 
Q 3506 1566 3506 1031 
Q 3506 472 3093 190 
Q 2681 -91 1863 -91 
Q 1516 -91 1145 -36 
Q 775 19 384 128 
L 384 978 
Q 719 816 1070 734 
Q 1422 653 1784 653 
Q 2113 653 2278 743 
Q 2444 834 2444 1013 
Q 2444 1163 2330 1236 
Q 2216 1309 1875 1350 
L 1678 1375 
Q 931 1469 631 1722 
Q 331 1975 331 2491 
Q 331 3047 712 3315 
Q 1094 3584 1881 3584 
Q 2191 3584 2531 3537 
Q 2872 3491 3272 3391 
z
" transform="scale(0.015625)"/>
      <path id="DejaVuSans-Bold-6c" d="M 538 4863 
L 1656 4863 
L 1656 0 
L 538 0 
L 538 4863 
z
" transform="scale(0.015625)"/>
      <path id="DejaVuSans-Bold-6e" d="M 4056 2131 
L 4056 0 
L 2931 0 
L 2931 347 
L 2931 1631 
Q 2931 2084 2911 2256 
Q 2891 2428 2841 2509 
Q 2775 2619 2662 2680 
Q 2550 2741 2406 2741 
Q 2056 2741 1856 2470 
Q 1656 2200 1656 1722 
L 1656 0 
L 538 0 
L 538 3500 
L 1656 3500 
L 1656 2988 
Q 1909 3294 2193 3439 
Q 2478 3584 2822 3584 
Q 3428 3584 3742 3212 
Q 4056 2841 4056 2131 
z
" transform="scale(0.015625)"/>
      <path id="DejaVuSans-Bold-64" d="M 2919 2988 
L 2919 4863 
L 4044 4863 
L 4044 0 
L 2919 0 
L 2919 506 
Q 2688 197 2409 53 
Q 2131 -91 1766 -91 
Q 1119 -91 703 423 
Q 288 938 288 1747 
Q 288 2556 703 3070 
Q 1119 3584 1766 3584 
Q 2128 3584 2408 3439 
Q 2688 3294 2919 2988 
z
M 2181 722 
Q 2541 722 2730 984 
Q 2919 1247 2919 1747 
Q 2919 2247 2730 2509 
Q 2541 2772 2181 2772 
Q 1825 2772 1636 2509 
Q 1447 2247 1447 1747 
Q 1447 1247 1636 984 
Q 1825 722 2181 722 
z
" transform="scale(0.015625)"/>
      <path id="DejaVuSans-Bold-50" d="M 588 4666 
L 2584 4666 
Q 3475 4666 3951 4270 
Q 4428 3875 4428 3144 
Q 4428 2409 3951 2014 
Q 3475 1619 2584 1619 
L 1791 1619 
L 1791 0 
L 588 0 
L 588 4666 
z
M 1791 3794 
L 1791 2491 
L 2456 2491 
Q 2806 2491 2997 2661 
Q 3188 2831 3188 3144 
Q 3188 3456 2997 3625 
Q 2806 3794 2456 3794 
L 1791 3794 
z
" transform="scale(0.015625)"/>
      <path id="DejaVuSans-Bold-41" d="M 3419 850 
L 1538 850 
L 1241 0 
L 31 0 
L 1759 4666 
L 3194 4666 
L 4922 0 
L 3713 0 
L 3419 850 
z
M 1838 1716 
L 3116 1716 
L 2478 3572 
L 1838 1716 
z
" transform="scale(0.015625)"/>
      <path id="DejaVuSans-Bold-28" d="M 2413 -844 
L 1484 -844 
Q 1006 -72 778 623 
Q 550 1319 550 2003 
Q 550 2688 779 3389 
Q 1009 4091 1484 4856 
L 2413 4856 
Q 2013 4116 1813 3408 
Q 1613 2700 1613 2009 
Q 1613 1319 1811 609 
Q 2009 -100 2413 -844 
z
" transform="scale(0.015625)"/>
      <path id="DejaVuSans-Bold-31" d="M 750 831 
L 1813 831 
L 1813 3847 
L 722 3622 
L 722 4441 
L 1806 4666 
L 2950 4666 
L 2950 831 
L 4013 831 
L 4013 0 
L 750 0 
L 750 831 
z
" transform="scale(0.015625)"/>
      <path id="DejaVuSans-Bold-39" d="M 641 103 
L 641 966 
Q 928 831 1190 764 
Q 1453 697 1709 697 
Q 2247 697 2547 995 
Q 2847 1294 2900 1881 
Q 2688 1725 2447 1647 
Q 2206 1569 1925 1569 
Q 1209 1569 770 1986 
Q 331 2403 331 3084 
Q 331 3838 820 4291 
Q 1309 4744 2131 4744 
Q 3044 4744 3544 4128 
Q 4044 3513 4044 2388 
Q 4044 1231 3459 570 
Q 2875 -91 1856 -91 
Q 1528 -91 1228 -42 
Q 928 6 641 103 
z
M 2125 2350 
Q 2441 2350 2600 2554 
Q 2759 2759 2759 3169 
Q 2759 3575 2600 3781 
Q 2441 3988 2125 3988 
Q 1809 3988 1650 3781 
Q 1491 3575 1491 3169 
Q 1491 2759 1650 2554 
Q 1809 2350 2125 2350 
z
" transform="scale(0.015625)"/>
      <path id="DejaVuSans-Bold-38" d="M 2228 2088 
Q 1891 2088 1709 1903 
Q 1528 1719 1528 1375 
Q 1528 1031 1709 848 
Q 1891 666 2228 666 
Q 2563 666 2741 848 
Q 2919 1031 2919 1375 
Q 2919 1722 2741 1905 
Q 2563 2088 2228 2088 
z
M 1350 2484 
Q 925 2613 709 2878 
Q 494 3144 494 3541 
Q 494 4131 934 4440 
Q 1375 4750 2228 4750 
Q 3075 4750 3515 4442 
Q 3956 4134 3956 3541 
Q 3956 3144 3739 2878 
Q 3522 2613 3097 2484 
Q 3572 2353 3814 2058 
Q 4056 1763 4056 1313 
Q 4056 619 3595 264 
Q 3134 -91 2228 -91 
Q 1319 -91 855 264 
Q 391 619 391 1313 
Q 391 1763 633 2058 
Q 875 2353 1350 2484 
z
M 1631 3419 
Q 1631 3141 1786 2991 
Q 1941 2841 2228 2841 
Q 2509 2841 2662 2991 
Q 2816 3141 2816 3419 
Q 2816 3697 2662 3845 
Q 2509 3994 2228 3994 
Q 1941 3994 1786 3844 
Q 1631 3694 1631 3419 
z
" transform="scale(0.015625)"/>
      <path id="DejaVuSans-Bold-35" d="M 678 4666 
L 3669 4666 
L 3669 3781 
L 1638 3781 
L 1638 3059 
Q 1775 3097 1914 3117 
Q 2053 3138 2203 3138 
Q 3056 3138 3531 2711 
Q 4006 2284 4006 1522 
Q 4006 766 3489 337 
Q 2972 -91 2053 -91 
Q 1656 -91 1267 -14 
Q 878 63 494 219 
L 494 1166 
Q 875 947 1217 837 
Q 1559 728 1863 728 
Q 2300 728 2551 942 
Q 2803 1156 2803 1522 
Q 2803 1891 2551 2103 
Q 2300 2316 1863 2316 
Q 1603 2316 1309 2248 
Q 1016 2181 678 2041 
L 678 4666 
z
" transform="scale(0.015625)"/>
      <path id="DejaVuSans-Bold-6f" d="M 2203 2784 
Q 1831 2784 1636 2517 
Q 1441 2250 1441 1747 
Q 1441 1244 1636 976 
Q 1831 709 2203 709 
Q 2569 709 2762 976 
Q 2956 1244 2956 1747 
Q 2956 2250 2762 2517 
Q 2569 2784 2203 2784 
z
M 2203 3584 
Q 3106 3584 3614 3096 
Q 4122 2609 4122 1747 
Q 4122 884 3614 396 
Q 3106 -91 2203 -91 
Q 1297 -91 786 396 
Q 275 884 275 1747 
Q 275 2609 786 3096 
Q 1297 3584 2203 3584 
z
" transform="scale(0.015625)"/>
      <path id="DejaVuSans-Bold-32" d="M 1844 884 
L 3897 884 
L 3897 0 
L 506 0 
L 506 884 
L 2209 2388 
Q 2438 2594 2547 2791 
Q 2656 2988 2656 3200 
Q 2656 3528 2436 3728 
Q 2216 3928 1850 3928 
Q 1569 3928 1234 3808 
Q 900 3688 519 3450 
L 519 4475 
Q 925 4609 1322 4679 
Q 1719 4750 2100 4750 
Q 2938 4750 3402 4381 
Q 3866 4013 3866 3353 
Q 3866 2972 3669 2642 
Q 3472 2313 2841 1759 
L 1844 884 
z
" transform="scale(0.015625)"/>
      <path id="DejaVuSans-Bold-30" d="M 2944 2338 
Q 2944 3213 2780 3570 
Q 2616 3928 2228 3928 
Q 1841 3928 1675 3570 
Q 1509 3213 1509 2338 
Q 1509 1453 1675 1090 
Q 1841 728 2228 728 
Q 2613 728 2778 1090 
Q 2944 1453 2944 2338 
z
M 4147 2328 
Q 4147 1169 3647 539 
Q 3147 -91 2228 -91 
Q 1306 -91 806 539 
Q 306 1169 306 2328 
Q 306 3491 806 4120 
Q 1306 4750 2228 4750 
Q 3147 4750 3647 4120 
Q 4147 3491 4147 2328 
z
" transform="scale(0.015625)"/>
      <path id="DejaVuSans-Bold-34" d="M 2356 3675 
L 1038 1722 
L 2356 1722 
L 2356 3675 
z
M 2156 4666 
L 3494 4666 
L 3494 1722 
L 4159 1722 
L 4159 850 
L 3494 850 
L 3494 0 
L 2356 0 
L 2356 850 
L 288 850 
L 288 1881 
L 2156 4666 
z
" transform="scale(0.015625)"/>
      <path id="DejaVuSans-Bold-29" d="M 513 -844 
Q 913 -100 1113 609 
Q 1313 1319 1313 2009 
Q 1313 2700 1113 3408 
Q 913 4116 513 4856 
L 1441 4856 
Q 1916 4091 2145 3389 
Q 2375 2688 2375 2003 
Q 2375 1319 2147 623 
Q 1919 -72 1441 -844 
L 513 -844 
z
" transform="scale(0.015625)"/>
     </defs>
     <use xlink:href="#DejaVuSans-Bold-53"/>
     <use xlink:href="#DejaVuSans-Bold-65" transform="translate(72.021484 0)"/>
     <use xlink:href="#DejaVuSans-Bold-61" transform="translate(139.84375 0)"/>
     <use xlink:href="#DejaVuSans-Bold-20" transform="translate(207.324219 0)"/>
     <use xlink:href="#DejaVuSans-Bold-53" transform="translate(242.138672 0)"/>
     <use xlink:href="#DejaVuSans-Bold-75" transform="translate(314.160156 0)"/>
     <use xlink:href="#DejaVuSans-Bold-72" transform="translate(385.351562 0)"/>
     <use xlink:href="#DejaVuSans-Bold-66" transform="translate(434.667969 0)"/>
     <use xlink:href="#DejaVuSans-Bold-61" transform="translate(478.173828 0)"/>
     <use xlink:href="#DejaVuSans-Bold-63" transform="translate(545.654297 0)"/>
     <use xlink:href="#DejaVuSans-Bold-65" transform="translate(604.931641 0)"/>
     <use xlink:href="#DejaVuSans-Bold-20" transform="translate(672.753906 0)"/>
     <use xlink:href="#DejaVuSans-Bold-54" transform="translate(707.568359 0)"/>
     <use xlink:href="#DejaVuSans-Bold-65" transform="translate(762.53125 0)"/>
     <use xlink:href="#DejaVuSans-Bold-6d" transform="translate(830.353516 0)"/>
     <use xlink:href="#DejaVuSans-Bold-70" transform="translate(934.552734 0)"/>
     <use xlink:href="#DejaVuSans-Bold-65" transform="translate(1006.134766 0)"/>
     <use xlink:href="#DejaVuSans-Bold-72" transform="translate(1073.957031 0)"/>
     <use xlink:href="#DejaVuSans-Bold-61" transform="translate(1123.273438 0)"/>
     <use xlink:href="#DejaVuSans-Bold-74" transform="translate(1190.753906 0)"/>
     <use xlink:href="#DejaVuSans-Bold-75" transform="translate(1238.556641 0)"/>
     <use xlink:href="#DejaVuSans-Bold-72" transform="translate(1309.748047 0)"/>
     <use xlink:href="#DejaVuSans-Bold-65" transform="translate(1359.064453 0)"/>
     <use xlink:href="#DejaVuSans-Bold-20" transform="translate(1426.886719 0)"/>
     <use xlink:href="#DejaVuSans-Bold-2014" transform="translate(1461.701172 0)"/>
     <use xlink:href="#DejaVuSans-Bold-20" transform="translate(1561.701172 0)"/>
     <use xlink:href="#DejaVuSans-Bold-4d" transform="translate(1596.515625 0)"/>
     <use xlink:href="#DejaVuSans-Bold-61" transform="translate(1696.027344 0)"/>
     <use xlink:href="#DejaVuSans-Bold-66" transform="translate(1763.507812 0)"/>
     <use xlink:href="#DejaVuSans-Bold-69" transform="translate(1807.013672 0)"/>
     <use xlink:href="#DejaVuSans-Bold-61" transform="translate(1841.291016 0)"/>
     <use xlink:href="#DejaVuSans-Bold-20" transform="translate(1908.771484 0)"/>
     <use xlink:href="#DejaVuSans-Bold-49" transform="translate(1943.585938 0)"/>
     <use xlink:href="#DejaVuSans-Bold-73" transform="translate(1980.792969 0)"/>
     <use xlink:href="#DejaVuSans-Bold-6c" transform="translate(2040.314453 0)"/>
     <use xlink:href="#DejaVuSans-Bold-61" transform="translate(2074.591797 0)"/>
     <use xlink:href="#DejaVuSans-Bold-6e" transform="translate(2142.072266 0)"/>
     <use xlink:href="#DejaVuSans-Bold-64" transform="translate(2213.263672 0)"/>
     <use xlink:href="#DejaVuSans-Bold-20" transform="translate(2284.845703 0)"/>
     <use xlink:href="#DejaVuSans-Bold-4d" transform="translate(2319.660156 0)"/>
     <use xlink:href="#DejaVuSans-Bold-50" transform="translate(2419.171875 0)"/>
     <use xlink:href="#DejaVuSans-Bold-41" transform="translate(2483.337891 0)"/>
     <use xlink:href="#DejaVuSans-Bold-20" transform="translate(2560.730469 0)"/>
     <use xlink:href="#DejaVuSans-Bold-28" transform="translate(2595.544922 0)"/>
     <use xlink:href="#DejaVuSans-Bold-31" transform="translate(2641.248047 0)"/>
     <use xlink:href="#DejaVuSans-Bold-39" transform="translate(2710.828125 0)"/>
     <use xlink:href="#DejaVuSans-Bold-38" transform="translate(2780.408203 0)"/>
     <use xlink:href="#DejaVuSans-Bold-35" transform="translate(2849.988281 0)"/>
     <use xlink:href="#DejaVuSans-Bold-20" transform="translate(2919.568359 0)"/>
     <use xlink:href="#DejaVuSans-Bold-74" transform="translate(2954.382812 0)"/>
     <use xlink:href="#DejaVuSans-Bold-6f" transform="translate(3002.185547 0)"/>
     <use xlink:href="#DejaVuSans-Bold-20" transform="translate(3070.886719 0)"/>
     <use xlink:href="#DejaVuSans-Bold-32" transform="translate(3105.701172 0)"/>
     <use xlink:href="#DejaVuSans-Bold-30" transform="translate(3175.28125 0)"/>
     <use xlink:href="#DejaVuSans-Bold-32" transform="translate(3244.861328 0)"/>
     <use xlink:href="#DejaVuSans-Bold-34" transform="translate(3314.441406 0)"/>
     <use xlink:href="#DejaVuSans-Bold-29" transform="translate(3384.021484 0)"/>
    </g>
   </g>
   <g id="legend_1">
    <g id="patch_5">
     <path d="M 699.969219 311.657969 
L 915.430625 311.657969 
Q 917.230625 311.657969 917.230625 309.857969 
L 917.230625 271.127031 
Q 917.230625 269.327031 915.430625 269.327031 
L 699.969219 269.327031 
Q 698.169219 269.327031 698.169219 271.127031 
L 698.169219 309.857969 
Q 698.169219 311.657969 699.969219 311.657969 
z
" style="fill: #ffffff; opacity: 0.8; stroke: #cccccc; stroke-linejoin: miter"/>
    </g>
    <g id="line2d_23">
     <path d="M 701.769219 276.615625 
L 710.769219 276.615625 
L 719.769219 276.615625 
" style="fill: none; stroke: #1565c0; stroke-opacity: 0.55; stroke-width: 0.7; stroke-linecap: square"/>
    </g>
    <g id="text_23">
     <!-- Monthly SST -->
     <g transform="translate(726.969219 279.765625) scale(0.09 -0.09)">
      <defs>
       <path id="DejaVuSans-4d" d="M 628 4666 
L 1569 4666 
L 2759 1491 
L 3956 4666 
L 4897 4666 
L 4897 0 
L 4281 0 
L 4281 4097 
L 3078 897 
L 2444 897 
L 1241 4097 
L 1241 0 
L 628 0 
L 628 4666 
z
" transform="scale(0.015625)"/>
       <path id="DejaVuSans-6f" d="M 1959 3097 
Q 1497 3097 1228 2736 
Q 959 2375 959 1747 
Q 959 1119 1226 758 
Q 1494 397 1959 397 
Q 2419 397 2687 759 
Q 2956 1122 2956 1747 
Q 2956 2369 2687 2733 
Q 2419 3097 1959 3097 
z
M 1959 3584 
Q 2709 3584 3137 3096 
Q 3566 2609 3566 1747 
Q 3566 888 3137 398 
Q 2709 -91 1959 -91 
Q 1206 -91 779 398 
Q 353 888 353 1747 
Q 353 2609 779 3096 
Q 1206 3584 1959 3584 
z
" transform="scale(0.015625)"/>
       <path id="DejaVuSans-6e" d="M 3513 2113 
L 3513 0 
L 2938 0 
L 2938 2094 
Q 2938 2591 2744 2837 
Q 2550 3084 2163 3084 
Q 1697 3084 1428 2787 
Q 1159 2491 1159 1978 
L 1159 0 
L 581 0 
L 581 3500 
L 1159 3500 
L 1159 2956 
Q 1366 3272 1645 3428 
Q 1925 3584 2291 3584 
Q 2894 3584 3203 3211 
Q 3513 2838 3513 2113 
z
" transform="scale(0.015625)"/>
       <path id="DejaVuSans-74" d="M 1172 4494 
L 1172 3500 
L 2356 3500 
L 2356 3053 
L 1172 3053 
L 1172 1153 
Q 1172 725 1289 603 
Q 1406 481 1766 481 
L 2356 481 
L 2356 0 
L 1766 0 
Q 1100 0 847 248 
Q 594 497 594 1153 
L 594 3053 
L 172 3053 
L 172 3500 
L 594 3500 
L 594 4494 
L 1172 4494 
z
" transform="scale(0.015625)"/>
       <path id="DejaVuSans-68" d="M 3513 2113 
L 3513 0 
L 2938 0 
L 2938 2094 
Q 2938 2591 2744 2837 
Q 2550 3084 2163 3084 
Q 1697 3084 1428 2787 
Q 1159 2491 1159 1978 
L 1159 0 
L 581 0 
L 581 4863 
L 1159 4863 
L 1159 2956 
Q 1366 3272 1645 3428 
Q 1925 3584 2291 3584 
Q 2894 3584 3203 3211 
Q 3513 2838 3513 2113 
z
" transform="scale(0.015625)"/>
       <path id="DejaVuSans-6c" d="M 603 4863 
L 1178 4863 
L 1178 0 
L 603 0 
L 603 4863 
z
" transform="scale(0.015625)"/>
       <path id="DejaVuSans-79" d="M 2059 -325 
Q 1816 -950 1584 -1140 
Q 1353 -1331 966 -1331 
L 506 -1331 
L 506 -850 
L 844 -850 
Q 1081 -850 1212 -737 
Q 1344 -625 1503 -206 
L 1606 56 
L 191 3500 
L 800 3500 
L 1894 763 
L 2988 3500 
L 3597 3500 
L 2059 -325 
z
" transform="scale(0.015625)"/>
      </defs>
      <use xlink:href="#DejaVuSans-4d"/>
      <use xlink:href="#DejaVuSans-6f" transform="translate(86.279297 0)"/>
      <use xlink:href="#DejaVuSans-6e" transform="translate(147.460938 0)"/>
      <use xlink:href="#DejaVuSans-74" transform="translate(210.839844 0)"/>
      <use xlink:href="#DejaVuSans-68" transform="translate(250.048828 0)"/>
      <use xlink:href="#DejaVuSans-6c" transform="translate(313.427734 0)"/>
      <use xlink:href="#DejaVuSans-79" transform="translate(341.210938 0)"/>
      <use xlink:href="#DejaVuSans-20" transform="translate(400.390625 0)"/>
      <use xlink:href="#DejaVuSans-53" transform="translate(432.177734 0)"/>
      <use xlink:href="#DejaVuSans-53" transform="translate(495.654297 0)"/>
      <use xlink:href="#DejaVuSans-54" transform="translate(559.130859 0)"/>
     </g>
    </g>
    <g id="line2d_24">
     <path d="M 701.769219 289.825937 
L 710.769219 289.825937 
L 719.769219 289.825937 
" style="fill: none; stroke: #d32f2f; stroke-opacity: 0.85; stroke-width: 1.8; stroke-linecap: square"/>
    </g>
    <g id="text_24">
     <!-- 24-month smoothed -->
     <g transform="translate(726.969219 292.975937) scale(0.09 -0.09)">
      <defs>
       <path id="DejaVuSans-2d" d="M 313 2009 
L 1997 2009 
L 1997 1497 
L 313 1497 
L 313 2009 
z
" transform="scale(0.015625)"/>
       <path id="DejaVuSans-6d" d="M 3328 2828 
Q 3544 3216 3844 3400 
Q 4144 3584 4550 3584 
Q 5097 3584 5394 3201 
Q 5691 2819 5691 2113 
L 5691 0 
L 5113 0 
L 5113 2094 
Q 5113 2597 4934 2840 
Q 4756 3084 4391 3084 
Q 3944 3084 3684 2787 
Q 3425 2491 3425 1978 
L 3425 0 
L 2847 0 
L 2847 2094 
Q 2847 2600 2669 2842 
Q 2491 3084 2119 3084 
Q 1678 3084 1418 2786 
Q 1159 2488 1159 1978 
L 1159 0 
L 581 0 
L 581 3500 
L 1159 3500 
L 1159 2956 
Q 1356 3278 1631 3431 
Q 1906 3584 2284 3584 
Q 2666 3584 2933 3390 
Q 3200 3197 3328 2828 
z
" transform="scale(0.015625)"/>
       <path id="DejaVuSans-73" d="M 2834 3397 
L 2834 2853 
Q 2591 2978 2328 3040 
Q 2066 3103 1784 3103 
Q 1356 3103 1142 2972 
Q 928 2841 928 2578 
Q 928 2378 1081 2264 
Q 1234 2150 1697 2047 
L 1894 2003 
Q 2506 1872 2764 1633 
Q 3022 1394 3022 966 
Q 3022 478 2636 193 
Q 2250 -91 1575 -91 
Q 1294 -91 989 -36 
Q 684 19 347 128 
L 347 722 
Q 666 556 975 473 
Q 1284 391 1588 391 
Q 1994 391 2212 530 
Q 2431 669 2431 922 
Q 2431 1156 2273 1281 
Q 2116 1406 1581 1522 
L 1381 1569 
Q 847 1681 609 1914 
Q 372 2147 372 2553 
Q 372 3047 722 3315 
Q 1072 3584 1716 3584 
Q 2034 3584 2315 3537 
Q 2597 3491 2834 3397 
z
" transform="scale(0.015625)"/>
       <path id="DejaVuSans-64" d="M 2906 2969 
L 2906 4863 
L 3481 4863 
L 3481 0 
L 2906 0 
L 2906 525 
Q 2725 213 2448 61 
Q 2172 -91 1784 -91 
Q 1150 -91 751 415 
Q 353 922 353 1747 
Q 353 2572 751 3078 
Q 1150 3584 1784 3584 
Q 2172 3584 2448 3432 
Q 2725 3281 2906 2969 
z
M 947 1747 
Q 947 1113 1208 752 
Q 1469 391 1925 391 
Q 2381 391 2643 752 
Q 2906 1113 2906 1747 
Q 2906 2381 2643 2742 
Q 2381 3103 1925 3103 
Q 1469 3103 1208 2742 
Q 947 2381 947 1747 
z
" transform="scale(0.015625)"/>
      </defs>
      <use xlink:href="#DejaVuSans-32"/>
      <use xlink:href="#DejaVuSans-34" transform="translate(63.623047 0)"/>
      <use xlink:href="#DejaVuSans-2d" transform="translate(127.246094 0)"/>
      <use xlink:href="#DejaVuSans-6d" transform="translate(163.330078 0)"/>
      <use xlink:href="#DejaVuSans-6f" transform="translate(260.742188 0)"/>
      <use xlink:href="#DejaVuSans-6e" transform="translate(321.923828 0)"/>
      <use xlink:href="#DejaVuSans-74" transform="translate(385.302734 0)"/>
      <use xlink:href="#DejaVuSans-68" transform="translate(424.511719 0)"/>
      <use xlink:href="#DejaVuSans-20" transform="translate(487.890625 0)"/>
      <use xlink:href="#DejaVuSans-73" transform="translate(519.677734 0)"/>
      <use xlink:href="#DejaVuSans-6d" transform="translate(571.777344 0)"/>
      <use xlink:href="#DejaVuSans-6f" transform="translate(669.189453 0)"/>
      <use xlink:href="#DejaVuSans-6f" transform="translate(730.371094 0)"/>
      <use xlink:href="#DejaVuSans-74" transform="translate(791.552734 0)"/>
      <use xlink:href="#DejaVuSans-68" transform="translate(830.761719 0)"/>
      <use xlink:href="#DejaVuSans-65" transform="translate(894.140625 0)"/>
      <use xlink:href="#DejaVuSans-64" transform="translate(955.664062 0)"/>
     </g>
    </g>
    <g id="line2d_25">
     <path d="M 701.769219 303.03625 
L 710.769219 303.03625 
L 719.769219 303.03625 
" style="fill: none; stroke-dasharray: 5.55,2.4; stroke-dashoffset: 0; stroke: #212121; stroke-width: 1.5"/>
    </g>
    <g id="text_25">
     <!-- Linear trend (+0.16 °C/decade, p=0.002) -->
     <g transform="translate(726.969219 306.18625) scale(0.09 -0.09)">
      <defs>
       <path id="DejaVuSans-4c" d="M 628 4666 
L 1259 4666 
L 1259 531 
L 3531 531 
L 3531 0 
L 628 0 
L 628 4666 
z
" transform="scale(0.015625)"/>
       <path id="DejaVuSans-69" d="M 603 3500 
L 1178 3500 
L 1178 0 
L 603 0 
L 603 3500 
z
M 603 4863 
L 1178 4863 
L 1178 4134 
L 603 4134 
L 603 4863 
z
" transform="scale(0.015625)"/>
       <path id="DejaVuSans-2b" d="M 2944 4013 
L 2944 2272 
L 4684 2272 
L 4684 1741 
L 2944 1741 
L 2944 0 
L 2419 0 
L 2419 1741 
L 678 1741 
L 678 2272 
L 2419 2272 
L 2419 4013 
L 2944 4013 
z
" transform="scale(0.015625)"/>
       <path id="DejaVuSans-2e" d="M 684 794 
L 1344 794 
L 1344 0 
L 684 0 
L 684 794 
z
" transform="scale(0.015625)"/>
       <path id="DejaVuSans-2f" d="M 1625 4666 
L 2156 4666 
L 531 -594 
L 0 -594 
L 1625 4666 
z
" transform="scale(0.015625)"/>
       <path id="DejaVuSans-63" d="M 3122 3366 
L 3122 2828 
Q 2878 2963 2633 3030 
Q 2388 3097 2138 3097 
Q 1578 3097 1268 2742 
Q 959 2388 959 1747 
Q 959 1106 1268 751 
Q 1578 397 2138 397 
Q 2388 397 2633 464 
Q 2878 531 3122 666 
L 3122 134 
Q 2881 22 2623 -34 
Q 2366 -91 2075 -91 
Q 1284 -91 818 406 
Q 353 903 353 1747 
Q 353 2603 823 3093 
Q 1294 3584 2113 3584 
Q 2378 3584 2631 3529 
Q 2884 3475 3122 3366 
z
" transform="scale(0.015625)"/>
       <path id="DejaVuSans-2c" d="M 750 794 
L 1409 794 
L 1409 256 
L 897 -744 
L 494 -744 
L 750 256 
L 750 794 
z
" transform="scale(0.015625)"/>
       <path id="DejaVuSans-70" d="M 1159 525 
L 1159 -1331 
L 581 -1331 
L 581 3500 
L 1159 3500 
L 1159 2969 
Q 1341 3281 1617 3432 
Q 1894 3584 2278 3584 
Q 2916 3584 3314 3078 
Q 3713 2572 3713 1747 
Q 3713 922 3314 415 
Q 2916 -91 2278 -91 
Q 1894 -91 1617 61 
Q 1341 213 1159 525 
z
M 3116 1747 
Q 3116 2381 2855 2742 
Q 2594 3103 2138 3103 
Q 1681 3103 1420 2742 
Q 1159 2381 1159 1747 
Q 1159 1113 1420 752 
Q 1681 391 2138 391 
Q 2594 391 2855 752 
Q 3116 1113 3116 1747 
z
" transform="scale(0.015625)"/>
       <path id="DejaVuSans-3d" d="M 678 2906 
L 4684 2906 
L 4684 2381 
L 678 2381 
L 678 2906 
z
M 678 1631 
L 4684 1631 
L 4684 1100 
L 678 1100 
L 678 1631 
z
" transform="scale(0.015625)"/>
      </defs>
      <use xlink:href="#DejaVuSans-4c"/>
      <use xlink:href="#DejaVuSans-69" transform="translate(55.712891 0)"/>
      <use xlink:href="#DejaVuSans-6e" transform="translate(83.496094 0)"/>
      <use xlink:href="#DejaVuSans-65" transform="translate(146.875 0)"/>
      <use xlink:href="#DejaVuSans-61" transform="translate(208.398438 0)"/>
      <use xlink:href="#DejaVuSans-72" transform="translate(269.677734 0)"/>
      <use xlink:href="#DejaVuSans-20" transform="translate(310.791016 0)"/>
      <use xlink:href="#DejaVuSans-74" transform="translate(342.578125 0)"/>
      <use xlink:href="#DejaVuSans-72" transform="translate(381.787109 0)"/>
      <use xlink:href="#DejaVuSans-65" transform="translate(420.650391 0)"/>
      <use xlink:href="#DejaVuSans-6e" transform="translate(482.173828 0)"/>
      <use xlink:href="#DejaVuSans-64" transform="translate(545.552734 0)"/>
      <use xlink:href="#DejaVuSans-20" transform="translate(609.029297 0)"/>
      <use xlink:href="#DejaVuSans-28" transform="translate(640.816406 0)"/>
      <use xlink:href="#DejaVuSans-2b" transform="translate(679.830078 0)"/>
      <use xlink:href="#DejaVuSans-30" transform="translate(763.619141 0)"/>
      <use xlink:href="#DejaVuSans-2e" transform="translate(827.242188 0)"/>
      <use xlink:href="#DejaVuSans-31" transform="translate(859.029297 0)"/>
      <use xlink:href="#DejaVuSans-36" transform="translate(922.652344 0)"/>
      <use xlink:href="#DejaVuSans-20" transform="translate(986.275391 0)"/>
      <use xlink:href="#DejaVuSans-b0" transform="translate(1018.0625 0)"/>
      <use xlink:href="#DejaVuSans-43" transform="translate(1068.0625 0)"/>
      <use xlink:href="#DejaVuSans-2f" transform="translate(1137.886719 0)"/>
      <use xlink:href="#DejaVuSans-64" transform="translate(1171.578125 0)"/>
      <use xlink:href="#DejaVuSans-65" transform="translate(1235.054688 0)"/>
      <use xlink:href="#DejaVuSans-63" transform="translate(1296.578125 0)"/>
      <use xlink:href="#DejaVuSans-61" transform="translate(1351.558594 0)"/>
      <use xlink:href="#DejaVuSans-64" transform="translate(1412.837891 0)"/>
      <use xlink:href="#DejaVuSans-65" transform="translate(1476.314453 0)"/>
      <use xlink:href="#DejaVuSans-2c" transform="translate(1537.837891 0)"/>
      <use xlink:href="#DejaVuSans-20" transform="translate(1569.625 0)"/>
      <use xlink:href="#DejaVuSans-70" transform="translate(1601.412109 0)"/>
      <use xlink:href="#DejaVuSans-3d" transform="translate(1664.888672 0)"/>
      <use xlink:href="#DejaVuSans-30" transform="translate(1748.677734 0)"/>
      <use xlink:href="#DejaVuSans-2e" transform="translate(1812.300781 0)"/>
      <use xlink:href="#DejaVuSans-30" transform="translate(1844.087891 0)"/>
      <use xlink:href="#DejaVuSans-30" transform="translate(1907.710938 0)"/>
      <use xlink:href="#DejaVuSans-32" transform="translate(1971.333984 0)"/>
      <use xlink:href="#DejaVuSans-29" transform="translate(2034.957031 0)"/>
     </g>
    </g>
   </g>
  </g>
 </g>
 <defs>
  <clipPath id="pdf42bfc10c">
   <rect x="39.330625" y="23.077969" width="882.4" height="293.08"/>
  </clipPath>
 </defs>
</svg>
